<?xml version="1.0" standalone="no"?>
<!DOCTYPE svg PUBLIC "-//W3C//DTD SVG 20010904//EN"
 "http://www.w3.org/TR/2001/REC-SVG-20010904/DTD/svg10.dtd">
<svg version="1.0" xmlns="http://www.w3.org/2000/svg"
 width="736.000000pt" height="736.000000pt" viewBox="0 0 736.000000 736.000000"
 preserveAspectRatio="xMidYMid meet">

<g transform="translate(0.000000,736.000000) scale(0.100000,-0.100000)"
fill="#000000" stroke="none">
<path d="M3110 6522 c0 -5 20 -17 44 -26 73 -28 74 -39 11 -72 -30 -16 -55
-32 -55 -35 0 -3 25 -23 55 -44 30 -20 55 -39 55 -42 0 -7 -54 -54 -82 -71
-16 -9 -28 -20 -28 -24 0 -4 29 -21 65 -38 36 -17 65 -35 65 -39 0 -4 -26 -32
-57 -62 -31 -30 -56 -56 -55 -59 6 -15 30 0 77 48 48 47 75 67 60 43 -3 -5 -2
-12 2 -14 5 -3 9 10 10 28 2 36 7 32 -101 71 l-49 18 29 23 c16 13 34 23 40
23 6 0 29 16 52 36 35 29 42 32 43 17 0 -10 3 -13 5 -7 3 6 -1 24 -8 40 -12
29 -15 39 -17 60 0 6 -13 12 -27 12 -18 0 -22 -3 -13 -9 11 -7 11 -9 1 -9 -7
0 2 -13 20 -30 18 -16 27 -30 20 -30 -7 0 -10 -4 -7 -10 10 -16 -4 -12 -40 13
-19 13 -32 27 -27 32 4 4 -1 5 -11 2 -10 -4 -28 -1 -39 7 l-20 14 20 11 c12 6
30 11 41 11 11 0 23 5 27 11 3 6 17 9 29 7 18 -4 22 -1 17 10 -3 10 -1 13 6 8
6 -3 14 -2 17 4 4 6 3 10 -2 9 -4 -1 -20 3 -36 9 -35 15 -120 53 -129 59 -5 2
-8 0 -8 -5z"/>
<path d="M4230 6510 c-35 -35 -25 -81 21 -99 41 -15 73 6 77 51 5 59 -56 90
-98 48z m68 -6 c24 -17 29 -53 10 -72 -27 -27 -88 -3 -88 34 0 15 35 54 48 54
4 0 18 -7 30 -16z"/>
<path d="M3291 6424 c0 -11 3 -14 6 -6 3 7 2 16 -1 19 -3 4 -6 -2 -5 -13z"/>
<path d="M3301 6374 c0 -11 3 -14 6 -6 3 7 2 16 -1 19 -3 4 -6 -2 -5 -13z"/>
<path d="M3215 6360 c3 -5 8 -10 11 -10 2 0 4 5 4 10 0 6 -5 10 -11 10 -5 0
-7 -4 -4 -10z"/>
<path d="M3240 6340 c0 -5 5 -10 11 -10 5 0 7 5 4 10 -3 6 -8 10 -11 10 -2 0
-4 -4 -4 -10z"/>
<path d="M3240 6265 c-10 -12 -10 -15 0 -15 9 0 9 -4 2 -13 -8 -9 -4 -15 15
-24 25 -12 25 -12 7 9 -15 17 -16 20 -3 16 9 -4 16 -1 16 7 0 8 -7 11 -16 7
-14 -5 -14 -3 -2 11 7 9 9 17 3 17 -5 0 -15 -7 -22 -15z"/>
<path d="M4366 6111 c-14 -15 -15 -21 -4 -27 7 -4 10 -3 5 1 -4 5 0 17 10 27
9 10 14 18 11 18 -3 0 -13 -9 -22 -19z"/>
<path d="M4391 6106 c-9 -10 -9 -16 -1 -21 8 -5 7 -13 -3 -28 -17 -27 -28 -67
-18 -67 4 0 13 18 20 41 7 23 14 39 17 37 2 -2 0 -19 -5 -36 -5 -18 -6 -32 -1
-32 12 0 23 71 11 83 -5 5 -7 16 -4 23 7 18 -1 18 -16 0z"/>
<path d="M3250 6041 c0 -6 5 -11 10 -11 6 0 10 -7 10 -15 0 -8 5 -15 10 -15 6
0 10 10 10 22 0 12 -3 18 -7 15 -3 -4 -12 -2 -20 4 -9 9 -13 8 -13 0z"/>
<path d="M4425 6029 c-4 -6 -5 -12 -2 -15 2 -3 7 2 10 11 7 17 1 20 -8 4z"/>
<path d="M3176 6022 c-3 -6 -1 -14 5 -17 14 -9 20 -2 10 14 -6 8 -11 9 -15 3z"/>
<path d="M3220 6022 c0 -5 3 -12 6 -15 4 -4 8 -31 9 -61 1 -30 7 -61 13 -69 7
-8 15 -35 18 -60 4 -26 11 -44 16 -41 5 3 6 -6 2 -22 l-7 -27 32 19 c17 10 31
25 31 33 0 11 -4 10 -14 -5 -18 -24 -30 -13 -30 31 0 18 -4 31 -9 28 -5 -3 -4
4 2 15 14 27 14 55 0 46 -7 -4 -10 6 -9 32 2 22 2 44 1 51 -1 14 -61 58 -61
45z"/>
<path d="M4327 5993 c4 -9 2 -14 -3 -10 -6 3 -10 -14 -11 -44 0 -27 4 -49 8
-49 5 0 6 -8 3 -17 -4 -14 -3 -14 7 1 9 15 9 21 1 24 -7 2 -12 8 -12 13 0 6 4
8 9 4 5 -3 16 8 24 25 13 26 13 30 1 30 -8 0 -14 -7 -14 -16 0 -8 -5 -12 -11
-9 -7 5 -5 15 5 30 13 20 13 24 1 29 -10 3 -12 0 -8 -11z"/>
<path d="M3025 5989 c-4 -6 -5 -12 -2 -15 2 -3 7 2 10 11 7 17 1 20 -8 4z"/>
<path d="M4289 5954 c6 -12 6 -25 2 -30 -11 -12 -26 -61 -16 -52 5 4 14 3 22
-3 8 -8 13 -8 13 -1 0 6 -5 12 -11 14 -7 2 -7 12 0 30 7 20 6 30 -5 44 -14 18
-15 18 -5 -2z"/>
<path d="M3786 5945 c-3 -8 -2 -14 2 -14 19 3 25 -2 12 -11 -12 -8 -8 -10 15
-11 l30 -1 -30 -7 c-17 -4 -33 -2 -37 3 -9 14 -21 0 -25 -29 -3 -19 1 -25 14
-25 15 0 16 2 3 10 -26 16 0 25 75 25 68 0 88 8 40 17 -29 5 -31 35 -3 42 13
3 -2 3 -32 1 -37 -3 -50 -1 -40 5 13 8 13 10 -1 10 -9 0 -19 -7 -23 -15z"/>
<path d="M4377 5953 c-4 -3 -7 -11 -7 -17 0 -6 5 -5 12 2 6 6 9 14 7 17 -3 3
-9 2 -12 -2z"/>
<path d="M3090 5931 c0 -5 -9 -11 -20 -14 -11 -3 -20 -11 -19 -19 0 -10 2 -10
6 0 7 17 23 15 23 -3 0 -8 -5 -15 -11 -15 -5 0 -7 -5 -3 -12 5 -8 12 -2 20 17
15 34 19 10 5 -27 -4 -13 -5 -32 0 -43 l9 -20 -2 20 c-2 23 11 68 22 75 4 3
10 15 14 28 6 19 4 22 -18 22 -14 0 -26 -4 -26 -9z"/>
<path d="M3290 5931 c0 -6 4 -13 10 -16 6 -3 7 1 4 9 -7 18 -14 21 -14 7z"/>
<path d="M3930 5930 c0 -5 -8 -10 -17 -10 -15 0 -16 -2 -3 -10 22 -14 26 -12
27 10 1 11 0 20 -3 20 -2 0 -4 -4 -4 -10z"/>
<path d="M3200 5895 c0 -8 5 -15 10 -15 6 0 10 7 10 15 0 8 -4 15 -10 15 -5 0
-10 -7 -10 -15z"/>
<path d="M3930 5877 c0 -10 8 -17 18 -17 9 0 13 4 7 8 -5 4 -13 11 -17 16 -5
5 -8 2 -8 -7z"/>
<path d="M3790 5871 c0 -4 19 -8 43 -8 30 0 37 2 22 8 -27 11 -65 11 -65 0z"/>
<path d="M3308 5832 c-2 -24 -1 -45 3 -48 11 -6 18 48 9 70 -6 17 -8 12 -12
-22z"/>
<path d="M4222 5856 c4 -5 -3 -17 -15 -27 -12 -10 -17 -18 -10 -19 6 0 15 5
18 10 9 15 38 12 32 -2 -2 -7 -10 -12 -16 -10 -7 1 -5 -8 5 -23 9 -14 12 -25
6 -25 -6 0 -15 8 -21 18 -5 9 -22 18 -38 18 -15 1 -73 14 -128 28 -86 24 -115
27 -210 24 -69 -2 -114 -7 -120 -15 -5 -6 -33 -20 -61 -31 -67 -25 -155 -84
-216 -144 -28 -29 -53 -46 -60 -42 -6 4 -8 3 -5 -3 3 -5 -10 -32 -29 -58 -19
-27 -47 -77 -63 -110 -73 -157 -66 -354 17 -448 14 -16 14 -20 2 -29 -12 -8
-12 -9 3 -4 12 4 20 -2 27 -19 5 -14 13 -25 17 -25 8 0 47 -72 78 -143 19 -43
14 -94 -13 -134 -13 -20 -14 -32 -5 -64 8 -30 7 -41 -3 -49 -19 -16 -16 -187
3 -217 9 -13 13 -32 10 -43 -3 -11 -1 -20 4 -20 5 0 9 -7 9 -16 0 -9 24 -39
54 -68 29 -29 57 -63 61 -75 7 -23 74 -60 109 -61 13 0 16 -5 12 -16 -5 -14
-4 -15 8 -5 9 7 24 10 37 6 15 -5 19 -4 14 5 -5 8 4 10 32 6 24 -4 31 -3 19 2
-22 9 -15 16 27 26 35 8 96 46 130 80 13 13 38 31 55 40 27 14 49 48 44 68 -1
4 10 24 24 45 13 20 24 47 22 58 -1 12 6 35 17 51 11 16 22 40 25 54 3 14 10
25 17 25 6 0 15 3 19 8 4 4 14 7 23 7 20 0 80 41 86 60 3 8 14 21 26 29 19 11
21 11 16 -3 -5 -12 0 -16 15 -16 21 0 21 0 -2 25 -28 29 -30 30 -56 9 -18 -14
-18 -15 4 -4 13 7 26 9 29 6 9 -8 -59 -35 -74 -29 -9 4 -11 0 -7 -11 8 -20
-22 -56 -46 -56 -9 0 -23 6 -31 12 -12 11 -12 11 -1 -2 16 -19 15 -31 -3 -24
-39 15 -6 49 110 110 53 28 64 31 69 18 9 -23 28 -6 20 18 -5 17 -3 19 18 13
18 -5 20 -4 8 4 -10 7 -11 11 -3 11 7 0 38 24 69 53 31 28 61 51 66 49 5 -1 7
2 4 7 -8 12 28 73 37 64 11 -10 8 -25 -3 -18 -15 9 -12 -11 3 -23 10 -9 13 -6
12 13 0 13 -3 26 -6 30 -4 3 2 23 12 43 36 72 49 105 49 125 0 11 8 26 18 34
9 8 12 12 7 9 -7 -3 -11 36 -10 117 0 116 -2 126 -34 206 -63 152 -150 260
-276 342 -39 25 -61 46 -62 59 -1 11 3 18 8 14 5 -3 9 -2 8 3 -1 4 -1 15 0 23
1 13 2 13 11 0 5 -8 10 -10 10 -4 0 5 -6 16 -12 23 -11 12 -9 13 7 7 16 -6 18
-5 8 5 -10 10 -16 10 -25 1 -9 -9 -16 -8 -32 6 -12 9 -18 13 -14 8z m-172 -42
c84 -19 229 -90 308 -149 194 -146 287 -394 237 -630 -39 -184 -148 -319 -335
-414 -108 -55 -150 -85 -150 -107 0 -65 -204 -58 -443 15 -106 33 -141 48
-181 74 -27 19 -28 22 -22 81 9 81 -5 118 -99 263 -90 140 -110 198 -102 298
22 257 227 502 477 569 72 19 228 20 310 0z m-473 -1323 c48 -16 121 -35 161
-42 39 -7 72 -16 72 -21 0 -25 -307 53 -325 83 -9 13 -6 12 92 -20z m335 -63
c-17 -8 -26 -8 -34 0 -9 9 -4 12 23 11 32 0 33 -1 11 -11z m-220 -79 c75 -11
216 -8 308 7 25 4 31 3 21 -5 -27 -18 -182 -34 -265 -27 -119 10 -286 54 -286
75 0 5 32 -1 70 -14 39 -13 107 -29 152 -36z m-86 -92 c12 -11 -18 -8 -74 8
-29 9 -52 19 -52 24 0 9 114 -20 126 -32z m349 -10 c-27 -16 -267 -23 -292 -8
-14 9 5 10 77 6 52 -3 118 -2 145 3 28 6 59 10 70 11 l20 0 -20 -12z m-329
-41 c39 -13 93 -28 120 -31 74 -11 91 -27 20 -20 -60 6 -203 49 -220 66 -15
14 3 11 80 -15z m284 -56 c0 -5 -11 -10 -25 -10 -14 0 -25 5 -25 10 0 6 11 10
25 10 14 0 25 -4 25 -10z m-278 -55 c29 -14 64 -25 78 -25 14 0 32 -5 40 -10
11 -7 7 -10 -17 -10 -39 0 -136 35 -153 55 -17 20 -11 19 52 -10z"/>
<path d="M3841 5165 c-34 -31 -42 -34 -66 -25 -55 21 -215 5 -215 -21 0 -6 9
-24 21 -40 66 -93 126 -318 104 -388 -6 -21 -10 -22 -91 -15 -60 5 -84 4 -84
-5 0 -7 24 -11 69 -11 80 0 102 -6 94 -26 -3 -8 0 -14 6 -14 6 0 11 7 11 16 0
19 23 16 138 -18 65 -19 72 -23 66 -42 -6 -20 -5 -20 11 -4 17 16 23 14 97
-23 43 -21 78 -35 78 -29 0 5 -34 25 -75 45 -41 20 -75 39 -75 43 0 20 66 118
115 171 62 66 102 94 172 121 l46 17 -74 53 c-41 28 -80 54 -86 57 -8 3 -13
23 -13 47 0 47 -22 86 -49 86 -10 0 -30 -9 -44 -20 -30 -24 -37 -25 -37 -6 0
22 -40 66 -61 66 -10 0 -36 -16 -58 -35z m98 -11 c16 -36 14 -59 -9 -96 -21
-35 -26 -73 -11 -82 15 -10 33 22 39 69 4 35 12 52 39 75 18 17 37 30 42 30
14 0 31 -25 37 -56 5 -24 -1 -36 -30 -66 -40 -41 -48 -78 -16 -78 12 0 26 12
36 33 9 17 18 34 20 36 4 5 62 -32 108 -68 l37 -29 -53 -25 c-73 -33 -146
-102 -214 -203 -43 -62 -62 -83 -74 -78 -8 3 -54 16 -102 27 l-88 22 0 63 c0
114 -43 259 -104 348 -22 32 -23 40 -11 47 27 15 141 20 178 8 34 -12 36 -14
34 -54 -2 -36 1 -42 18 -42 24 0 34 48 15 70 -22 27 41 88 80 78 10 -3 23 -16
29 -29z m-109 -84 c0 -19 -17 -36 -26 -27 -3 2 -2 16 2 31 7 28 24 26 24 -4z
m109 -56 c-6 -16 -13 -24 -16 -17 -5 13 16 58 23 50 3 -2 -1 -17 -7 -33z m116
-24 c-17 -32 -39 -42 -28 -12 8 23 24 42 34 42 5 0 3 -13 -6 -30z"/>
<path d="M2194 5836 c-51 -22 -74 -61 -74 -123 0 -49 4 -59 33 -88 39 -39 104
-54 152 -34 17 7 46 12 65 12 19 0 27 1 18 4 -10 3 -15 11 -12 21 5 15 4 15
-6 0 -6 -10 -15 -18 -21 -18 -5 0 -2 11 8 24 10 13 21 22 24 20 4 -2 10 3 13
12 3 8 2 13 -2 10 -4 -2 -7 15 -7 39 0 35 -6 50 -30 75 -56 59 -101 72 -161
46z m123 -22 c20 -12 43 -67 43 -102 0 -32 -34 -81 -65 -96 -54 -26 -92 -21
-131 18 -101 101 32 257 153 180z"/>
<path d="M2276 5703 c-11 -27 -5 -39 6 -13 10 24 10 24 18 5 4 -11 3 -21 -1
-23 -5 -2 -9 -8 -9 -13 0 -4 7 -5 17 -2 12 5 14 3 8 -8 -8 -12 -6 -12 8 0 9 7
17 23 16 35 -1 19 -2 18 -8 -4 -6 -22 -8 -23 -14 -6 -4 10 -3 24 3 31 8 9 4
13 -14 13 -14 0 -27 -7 -30 -15z"/>
<path d="M2275 5630 c-3 -6 1 -7 9 -4 18 7 21 14 7 14 -6 0 -13 -4 -16 -10z"/>
<path d="M3112 5830 c0 -14 2 -19 5 -12 2 6 2 18 0 25 -3 6 -5 1 -5 -13z"/>
<path d="M4988 5771 c-37 -25 -67 -49 -68 -53 0 -4 14 -23 31 -42 l31 -36 -76
-34 c-42 -19 -76 -38 -76 -43 1 -15 90 -105 90 -91 0 8 -16 29 -35 48 -19 19
-35 37 -35 41 0 3 31 20 69 37 38 17 72 35 75 40 3 5 -8 22 -24 37 -17 16 -30
32 -30 36 0 4 27 27 60 50 33 23 60 46 60 50 0 11 6 15 -72 -40z"/>
<path d="M3103 5753 c3 -5 8 -38 12 -75 3 -38 12 -85 19 -105 l13 -38 13 24
c11 21 10 26 -4 36 -12 9 -16 30 -16 89 0 70 -2 76 -21 76 -11 0 -18 -3 -16
-7z"/>
<path d="M3187 5753 c-4 -3 -7 -39 -7 -79 0 -61 3 -72 15 -68 11 5 15 24 15
80 0 68 -6 85 -23 67z"/>
<path d="M2422 5734 c10 -10 20 -16 22 -13 3 3 -5 11 -17 18 -21 13 -21 12 -5
-5z"/>
<path d="M2407 5701 c3 -12 11 -17 19 -14 18 7 18 10 -5 22 -16 9 -18 8 -14
-8z"/>
<path d="M2481 5711 c-8 -5 -9 -11 -3 -15 5 -3 12 1 16 9 6 17 6 18 -13 6z"/>
<path d="M2447 5683 c-2 -5 -3 -17 -3 -27 1 -28 25 -31 35 -4 9 21 10 21 11 3
1 -18 2 -18 11 3 5 14 13 20 20 16 8 -4 9 -3 5 5 -5 8 -12 9 -20 2 -7 -6 -17
-6 -26 -1 -18 12 -28 12 -33 3z"/>
<path d="M3308 5683 c7 -3 16 -2 19 1 4 3 -2 6 -13 5 -11 0 -14 -3 -6 -6z"/>
<path d="M2480 5615 c0 -8 2 -15 4 -15 2 0 6 7 10 15 3 8 1 15 -4 15 -6 0 -10
-7 -10 -15z"/>
<path d="M2520 5615 c-8 -9 -8 -15 -2 -15 12 0 26 19 19 26 -2 2 -10 -2 -17
-11z"/>
<path d="M3210 5600 c-8 -5 -6 -11 5 -20 13 -11 18 -10 28 4 12 16 14 16 26 2
12 -14 12 -16 -1 -11 -11 4 -17 -3 -22 -26 -9 -45 -8 -52 7 -46 8 3 20 1 27
-3 12 -8 40 10 40 25 0 4 9 19 20 35 18 26 18 40 -2 40 -5 0 -6 -4 -3 -10 3
-5 -1 -20 -10 -32 l-16 -23 3 30 c2 23 -1 30 -17 32 -11 1 -32 4 -47 6 -14 2
-32 1 -38 -3z m100 -20 c0 -5 -2 -10 -4 -10 -3 0 -8 5 -11 10 -3 6 -1 10 4 10
6 0 11 -4 11 -10z m-7 -63 c-9 -15 -21 4 -15 25 5 21 6 21 12 2 4 -10 5 -22 3
-27z"/>
<path d="M2296 5571 c-3 -5 1 -11 9 -14 9 -4 12 -1 8 9 -6 16 -10 17 -17 5z"/>
<path d="M2562 5568 c-2 -13 -8 -15 -29 -9 -16 4 -50 6 -78 4 -27 -2 -63 -4
-78 -4 -30 0 -34 -20 -5 -25 8 -1 41 -9 72 -18 31 -9 61 -14 66 -11 6 3 10 0
10 -7 0 -8 4 -6 11 4 9 17 11 17 28 0 20 -19 34 -62 20 -62 -5 0 -9 5 -9 12 0
6 -6 4 -13 -7 -9 -11 -19 -15 -28 -11 -8 4 -6 1 3 -7 10 -8 16 -17 13 -20 -3
-4 -2 -4 3 -1 4 3 7 11 7 17 0 7 9 12 20 12 17 0 20 7 21 60 0 33 -1 52 -3 43
-7 -29 -21 -21 -26 15 -2 17 -5 24 -5 15z"/>
<path d="M3100 5510 c0 -11 2 -20 4 -20 2 0 6 9 9 20 3 11 1 20 -4 20 -5 0 -9
-9 -9 -20z"/>
<path d="M2367 5506 c4 -5 -2 -7 -13 -3 -18 7 -18 6 1 -8 22 -18 37 -15 40 6
2 8 -5 15 -15 15 -10 0 -16 -5 -13 -10z"/>
<path d="M3188 5514 c-5 -4 -8 -22 -8 -40 0 -27 4 -32 20 -31 12 1 18 7 16 14
-3 6 0 14 7 17 7 2 5 5 -5 5 -9 1 -18 10 -20 22 -2 11 -6 17 -10 13z"/>
<path d="M2418 5503 c6 -2 18 -2 25 0 6 3 1 5 -13 5 -14 0 -19 -2 -12 -5z"/>
<path d="M2450 5490 c-8 -5 -10 -10 -5 -10 6 0 17 5 25 10 8 5 11 10 5 10 -5
0 -17 -5 -25 -10z"/>
<path d="M5515 5491 c-2 -5 13 -14 35 -21 22 -7 37 -16 35 -20 -3 -5 2 -10 10
-14 8 -3 15 -12 15 -20 0 -18 -27 -27 -58 -21 -27 5 -52 -3 -52 -17 0 -6 6 -6
14 1 12 10 13 8 9 -8 -3 -12 -10 -21 -15 -21 -5 0 -2 -7 6 -16 9 -8 16 -20 16
-25 0 -6 5 -7 11 -3 8 5 8 9 -1 14 -10 6 -10 9 0 15 9 6 9 10 -1 17 -10 7 -8
8 7 3 24 -6 74 28 74 50 0 32 -25 64 -61 78 -21 8 -41 12 -44 8z"/>
<path d="M5580 5496 c0 -2 9 -6 20 -9 11 -3 18 -1 14 4 -5 9 -34 13 -34 5z"/>
<path d="M2620 5481 c0 -7 -4 -10 -9 -7 -16 10 -6 -69 11 -88 20 -22 13 -43
-8 -25 -21 17 -17 1 7 -24 15 -17 19 -18 14 -4 -4 10 -2 17 4 17 7 0 14 -7 17
-15 4 -8 10 -15 15 -15 4 0 6 6 3 13 -3 8 4 18 14 23 17 9 17 10 1 26 -15 14
-18 14 -23 2 -4 -10 -2 -12 6 -8 7 4 8 3 4 -5 -6 -9 -11 -9 -22 0 -7 6 -12 15
-9 19 3 5 1 10 -4 12 -5 1 -12 19 -16 38 l-8 35 22 -25 22 -25 -17 30 c-24 40
-24 40 -24 26z"/>
<path d="M3088 5455 c-3 -14 -1 -25 3 -25 5 0 9 11 9 25 0 14 -2 25 -4 25 -2
0 -6 -11 -8 -25z"/>
<path d="M3109 5451 c-3 -18 -3 -48 2 -65 4 -17 7 -23 8 -13 1 9 7 17 15 17
31 0 25 49 -6 50 -4 0 -8 10 -10 23 -3 17 -5 15 -9 -12z"/>
<path d="M4858 5473 c6 -2 18 -2 25 0 6 3 1 5 -13 5 -14 0 -19 -2 -12 -5z"/>
<path d="M5467 5465 c2 -7 13 -10 25 -7 12 3 19 1 16 -4 -4 -5 7 -10 23 -11
27 -2 28 -1 14 13 -19 20 -85 27 -78 9z"/>
<path d="M5614 5455 c23 -55 20 -68 -20 -103 -21 -19 -28 -27 -15 -19 13 9 28
14 35 13 6 -2 8 -1 4 1 -4 3 -1 11 7 20 20 20 19 77 -2 94 -15 12 -16 12 -9
-6z"/>
<path d="M3226 5444 c-3 -8 -6 -28 -5 -42 0 -15 3 -20 6 -12 15 46 15 46 23
25 8 -19 9 -19 9 1 1 29 -24 51 -33 28z"/>
<path d="M4856 5445 c4 -8 1 -15 -5 -15 -6 0 -11 -7 -11 -15 0 -10 9 -14 25
-13 23 2 37 28 15 28 -5 0 -10 7 -10 15 0 8 -4 15 -10 15 -5 0 -7 -7 -4 -15z"/>
<path d="M4780 5431 c0 -6 5 -13 10 -16 6 -3 10 1 10 9 0 9 -4 16 -10 16 -5 0
-10 -4 -10 -9z"/>
<path d="M4930 5433 c0 -6 8 -17 18 -24 16 -13 16 -13 2 6 -8 11 -16 22 -17
24 -2 2 -3 0 -3 -6z"/>
<path d="M1511 5425 c-2 -26 245 -315 359 -422 l44 -41 -28 -54 c-16 -29 -37
-65 -48 -80 -10 -14 -18 -32 -18 -39 0 -10 -3 -10 -12 -1 -10 10 -10 14 0 21
9 5 -21 35 -95 97 -59 49 -163 142 -230 207 -68 64 -126 117 -130 117 -13 0
138 -148 245 -241 l102 -89 -40 0 c-43 0 -80 -26 -80 -57 0 -9 9 -36 21 -60
25 -52 88 -93 142 -93 38 0 59 15 83 61 9 19 19 27 27 22 7 -4 62 -44 122 -89
130 -96 250 -174 360 -234 44 -24 85 -49 90 -56 6 -6 25 -18 43 -25 17 -8 32
-17 32 -21 0 -4 6 -5 13 -2 7 2 22 -4 33 -14 10 -10 24 -17 29 -15 18 5 38
-15 32 -32 -4 -9 -11 -13 -17 -10 -6 4 -7 -1 -4 -12 5 -16 3 -15 -10 2 -55 69
-109 95 -161 75 -17 -7 -33 -7 -45 0 -10 5 -34 10 -52 9 -31 -1 -31 -2 10 -10
23 -4 46 -10 50 -13 13 -8 1 -68 -12 -63 -84 34 -136 62 -136 73 0 7 -4 16
-10 19 -6 4 -7 -1 -3 -12 7 -17 6 -17 -17 -2 -34 23 -61 61 -69 100 l-8 34
-18 -37 c-10 -21 -23 -38 -28 -38 -14 0 -239 135 -357 213 -119 80 -371 266
-412 305 -16 14 -28 21 -28 15 0 -34 524 -402 738 -518 52 -28 61 -38 42 -50
-6 -4 -21 -27 -35 -53 -41 -77 -49 -86 -77 -71 -13 7 -31 14 -41 16 -52 9
-364 180 -531 292 -94 63 -101 67 -92 52 19 -30 309 -209 459 -282 67 -33 67
-34 46 -50 -43 -32 -19 -109 46 -149 56 -35 113 -22 129 28 15 45 35 43 222
-20 98 -33 215 -69 259 -78 71 -16 76 -18 45 -22 -19 -3 -6 -5 30 -4 89 1 330
-25 330 -36 0 -4 7 -8 15 -8 8 0 15 8 14 18 0 10 -3 12 -6 4 -2 -6 -9 -10 -13
-7 -5 3 -7 12 -4 19 4 11 -18 15 -103 21 -98 6 -296 37 -333 53 -8 3 -22 6
-30 7 -25 2 -74 16 -92 26 -11 6 -18 6 -18 0 0 -12 -164 43 -199 66 -14 10
-32 17 -40 18 -8 0 -16 5 -18 11 -5 16 35 25 41 9 4 -11 52 -23 126 -30 14 -2
30 -4 35 -6 6 -2 20 0 31 4 24 9 23 42 -3 51 -7 3 -12 2 -9 -2 2 -4 -2 -15 -9
-26 -11 -14 -18 -16 -32 -7 -17 10 -16 10 5 11 12 0 22 5 22 11 0 6 -9 8 -22
4 -16 -4 -19 -3 -9 3 11 8 11 10 0 15 -8 3 -3 5 10 4 13 -1 25 4 27 11 1 7 0
8 -2 3 -8 -16 -34 0 -34 21 0 10 5 16 10 13 6 -4 7 -11 4 -17 -5 -7 -2 -8 5
-4 14 9 182 -62 194 -81 4 -7 26 -23 49 -34 32 -16 51 -19 87 -15 l46 7 -32
-30 c-35 -33 -67 -34 -126 -4 -24 12 -30 12 -45 -4 -16 -16 -16 -17 1 -10 10
4 28 2 40 -4 20 -11 213 -16 223 -6 3 3 -15 5 -41 5 -58 0 -63 5 -29 27 19 12
29 14 37 6 8 -8 6 -11 -8 -12 -12 0 -15 -3 -7 -6 7 -3 18 -1 25 4 14 11 122
-9 111 -20 -4 -4 7 -4 24 -1 18 4 32 3 32 -2 0 -5 20 -8 45 -6 27 3 45 0 45
-6 0 -7 11 -8 31 -2 41 12 48 19 26 31 -22 13 -22 29 1 29 14 0 15 2 2 10 -19
12 -67 13 -75 1 -3 -6 9 -8 27 -6 18 2 27 1 20 -2 -10 -4 -10 -10 3 -29 13
-20 13 -24 1 -24 -8 0 -16 4 -18 10 -1 5 -60 18 -130 30 -104 16 -157 29 -186
46 -1 0 0 9 4 18 5 12 10 14 19 6 10 -8 15 -8 21 1 4 7 3 9 -4 5 -5 -3 -12 0
-15 6 -6 18 12 50 23 43 6 -3 7 1 4 9 -8 20 13 21 58 1 42 -17 220 -55 260
-55 25 0 28 3 22 25 -5 22 -3 25 20 25 16 0 26 6 26 15 0 8 -7 15 -16 15 -8 0
-22 7 -31 15 -8 8 -20 12 -26 8 -7 -4 -3 -12 11 -21 21 -14 22 -16 6 -33 -17
-19 -69 -26 -78 -11 -3 5 -19 7 -36 4 -19 -3 -30 0 -30 7 0 7 -4 10 -8 7 -11
-7 -92 14 -92 24 0 4 -12 8 -26 8 -36 0 -47 14 -28 38 14 17 15 17 10 1 -3
-11 -2 -16 4 -12 6 3 10 1 10 -4 0 -6 7 -11 15 -11 12 0 11 4 -5 20 -23 23
-24 27 -6 58 l13 24 42 -48 c27 -30 40 -55 38 -66 -3 -11 0 -18 9 -18 10 0 14
13 14 46 0 40 2 45 18 39 9 -3 38 -11 64 -17 56 -13 55 -28 -2 -21 -36 5 -40
3 -40 -16 0 -17 6 -21 30 -21 17 0 30 -4 30 -10 0 -5 9 -10 21 -10 12 0 19 5
16 13 -2 6 -10 11 -16 9 -15 -3 -14 15 2 25 6 4 30 8 51 8 30 0 40 4 42 18 2
13 -2 16 -17 12 -13 -4 -19 -2 -19 9 0 9 -5 16 -11 16 -5 0 -7 -4 -4 -10 9
-14 -19 -12 -83 6 -116 33 -134 53 -138 148 -2 33 -5 65 -8 73 -8 20 -32 15
-45 -9 -6 -13 -9 -15 -7 -6 4 12 1 15 -10 11 -7 -3 -14 -9 -14 -14 0 -5 -9 -9
-20 -9 -11 0 -20 -7 -20 -15 0 -8 -14 -21 -31 -27 l-30 -13 30 -18 c18 -10 31
-14 31 -7 0 6 -10 14 -22 19 -20 7 -19 8 12 15 19 3 41 13 51 22 12 11 23 13
36 6 10 -5 25 -7 33 -5 9 3 11 1 4 -4 -5 -4 -16 -22 -23 -40 -24 -58 -34 -60
-112 -23 -48 24 -65 37 -56 43 8 6 3 7 -13 3 -49 -11 -285 137 -475 297 -134
113 -140 119 -124 149 6 13 13 24 14 26 6 7 93 -84 108 -113 l16 -30 1 43 c0
46 -11 74 -43 109 -11 12 -25 42 -31 67 l-11 44 -40 -74 c-22 -41 -44 -74 -50
-74 -22 0 -260 265 -382 426 -12 16 -22 24 -22 19z m493 -549 c110 -99 281
-223 423 -309 119 -71 130 -80 125 -102 -5 -27 -22 -44 -22 -23 -1 7 -7 0 -15
-17 l-15 -30 4 28 c2 19 0 25 -6 19 -16 -16 -5 -45 17 -47 11 -2 29 -5 40 -9
15 -5 14 -4 -2 5 -25 13 -31 29 -10 25 6 -1 23 -8 36 -15 l24 -13 -23 -13
c-23 -13 -23 -13 10 -10 19 2 37 4 39 4 2 1 -2 7 -8 14 -11 14 -5 27 11 27 5
0 6 -4 3 -10 -4 -6 1 -7 12 -3 14 6 11 9 -17 21 -18 7 -42 11 -52 9 -23 -6
-23 8 0 23 16 11 16 11 0 6 -10 -3 -18 -1 -18 4 0 19 21 20 57 0 21 -11 44
-20 51 -20 16 0 9 -27 -20 -76 -22 -37 -26 -39 -48 -23 -12 8 -9 9 10 4 22 -5
23 -4 7 5 -10 7 -25 9 -32 6 -25 -9 -212 81 -366 177 -97 60 -264 177 -333
232 l-37 30 38 73 c21 39 40 72 42 72 1 0 35 -29 75 -64z m599 -463 c-7 -2
-19 -2 -25 0 -7 3 -2 5 12 5 14 0 19 -2 13 -5z m-433 -160 c0 -22 -6 -33 -19
-38 -22 -7 -68 9 -95 33 -11 9 -16 11 -12 5 4 -7 2 -13 -3 -13 -16 0 -13 14 9
43 11 14 20 30 20 36 0 6 4 11 10 11 5 0 7 -8 4 -17 -5 -15 -4 -15 4 -3 7 9 7
19 2 26 -6 6 -7 13 -4 17 3 3 23 -11 45 -31 29 -28 39 -45 39 -69z m730 67 c0
-5 -7 -10 -15 -10 -8 0 -15 5 -15 10 0 6 7 10 15 10 8 0 15 -4 15 -10z m-937
-125 c-3 -9 -8 -14 -10 -11 -3 3 -2 9 2 15 9 16 15 13 8 -4z"/>
<path d="M2517 4484 c3 -7 9 -14 14 -14 14 0 10 17 -5 23 -10 4 -13 1 -9 -9z"/>
<path d="M2628 4433 c7 -3 16 -2 19 1 4 3 -2 6 -13 5 -11 0 -14 -3 -6 -6z"/>
<path d="M2110 4302 c0 -10 22 -32 32 -32 15 0 8 15 -12 28 -11 7 -20 9 -20 4z"/>
<path d="M2070 4273 c0 -9 3 -13 7 -10 8 9 34 -13 28 -23 -6 -10 34 -25 42
-16 4 3 -2 6 -11 6 -12 0 -16 5 -13 14 6 15 -22 46 -41 46 -7 0 -12 -7 -12
-17z"/>
<path d="M4730 5420 c-13 -8 -13 -10 2 -10 9 0 20 5 23 10 8 13 -5 13 -25 0z"/>
<path d="M5450 5420 c0 -5 9 -10 19 -10 11 0 23 5 26 10 4 6 -5 10 -19 10 -14
0 -26 -4 -26 -10z"/>
<path d="M2575 5410 c3 -5 8 -10 11 -10 2 0 4 5 4 10 0 6 -5 10 -11 10 -5 0
-7 -4 -4 -10z"/>
<path d="M4897 5397 c-10 -10 -16 -21 -13 -25 8 -8 39 24 35 35 -2 5 -12 0
-22 -10z"/>
<path d="M5419 5402 c13 -25 9 -35 -32 -76 -17 -17 -19 -17 -31 -1 -11 16 -13
16 -27 -2 -13 -17 -13 -17 5 -3 18 14 19 13 13 -2 -3 -9 1 -22 8 -28 18 -15
48 -5 43 12 -3 7 5 17 16 23 27 14 33 66 10 86 -16 13 -16 12 -5 -9z"/>
<path d="M3080 5388 c0 -9 5 -20 10 -23 13 -8 13 5 0 25 -8 13 -10 13 -10 -2z"/>
<path d="M4685 5390 c-3 -6 1 -7 9 -4 18 7 21 14 7 14 -6 0 -13 -4 -16 -10z"/>
<path d="M4740 5385 c-7 -9 -19 -14 -25 -11 -7 2 -12 -1 -12 -7 1 -35 -4 -48
-15 -41 -7 4 -6 -1 3 -10 11 -12 24 -15 42 -11 15 4 24 11 21 16 -3 5 0 9 5 9
6 0 11 7 11 15 0 8 5 15 10 15 6 0 10 5 10 12 0 6 -9 3 -20 -7 -18 -16 -20
-16 -20 -2 0 10 5 17 10 17 6 0 10 5 10 10 0 15 -16 12 -30 -5z"/>
<path d="M3242 5370 c0 -14 2 -19 5 -12 2 6 2 18 0 25 -3 6 -5 1 -5 -13z"/>
<path d="M4955 5379 c-4 -6 -5 -12 -2 -15 2 -3 7 2 10 11 7 17 1 20 -8 4z"/>
<path d="M5395 5370 c-3 -6 1 -7 9 -4 18 7 21 14 7 14 -6 0 -13 -4 -16 -10z"/>
<path d="M3024 5352 c4 -7 2 -12 -5 -12 -8 0 -7 -5 2 -16 12 -15 11 -16 -8
-10 -13 4 -24 2 -29 -5 -4 -7 -3 -9 4 -5 6 3 13 2 16 -3 4 -5 -5 -8 -18 -7
-14 2 -30 0 -37 -5 -7 -4 10 -7 38 -6 29 2 56 7 60 11 4 5 3 6 -4 2 -9 -5 -12
1 -9 24 2 17 -1 33 -7 37 -6 3 -7 1 -3 -5z"/>
<path d="M3219 5333 c0 -25 -1 -26 -9 -8 -8 18 -9 18 -9 2 -1 -10 -8 -20 -16
-23 -8 -4 -15 -10 -15 -16 0 -5 5 -6 10 -3 6 3 14 -4 19 -17 9 -21 10 -21 11
-3 0 12 3 16 8 8 4 -6 8 11 9 38 1 27 0 49 -2 49 -3 0 -5 -12 -6 -27z"/>
<path d="M2690 5330 c0 -5 5 -10 10 -10 6 0 10 5 10 10 0 6 -4 10 -10 10 -5 0
-10 -4 -10 -10z"/>
<path d="M4960 5327 c0 -9 -7 -17 -15 -17 -8 0 -15 -7 -15 -15 0 -25 27 -17
34 11 4 15 5 29 1 32 -3 3 -5 -2 -5 -11z"/>
<path d="M2728 5313 c-21 -5 -24 -23 -4 -23 8 0 23 -3 33 -6 16 -6 16 -5 -2 9
-25 21 -7 22 22 2 12 -8 24 -11 27 -6 3 5 -2 11 -12 14 -9 2 -24 7 -32 10 -8
2 -23 3 -32 0z"/>
<path d="M4806 5311 c-4 -7 -5 -15 -2 -18 9 -9 19 4 14 18 -4 11 -6 11 -12 0z"/>
<path d="M2657 5290 c3 -11 9 -22 13 -25 5 -3 6 4 3 15 -3 11 -9 22 -13 25 -5
3 -6 -4 -3 -15z"/>
<path d="M2680 5290 c0 -5 5 -10 10 -10 6 0 10 5 10 10 0 6 -4 10 -10 10 -5 0
-10 -4 -10 -10z"/>
<path d="M5325 5290 c-3 -5 1 -10 10 -10 9 0 13 5 10 10 -3 6 -8 10 -10 10 -2
0 -7 -4 -10 -10z"/>
<path d="M2703 5265 c-7 -8 -13 -20 -13 -27 0 -10 2 -10 9 1 5 7 13 11 18 8 5
-3 10 3 10 14 2 22 -7 24 -24 4z"/>
<path d="M5406 5269 c6 -11 31 -12 37 -1 3 4 -6 8 -19 8 -13 1 -21 -2 -18 -7z"/>
<path d="M5328 5263 c7 -3 16 -2 19 1 4 3 -2 6 -13 5 -11 0 -14 -3 -6 -6z"/>
<path d="M5446 5258 c-11 -6 -44 -11 -73 -12 -30 0 -46 -3 -37 -6 12 -5 4 -12
-32 -28 -27 -11 -77 -43 -111 -71 -49 -40 -61 -46 -60 -30 1 11 9 19 19 19 10
0 16 7 15 19 0 11 -6 17 -14 14 -7 -3 -10 -9 -7 -14 3 -5 0 -9 -5 -9 -6 0 -11
5 -11 10 0 6 -5 10 -11 10 -5 0 -7 -4 -4 -10 3 -5 2 -10 -4 -10 -10 0 -44 -60
-37 -67 8 -9 37 31 32 44 -4 9 -1 13 6 11 18 -6 15 -42 -5 -62 -26 -27 -95
-174 -114 -246 -12 -44 -18 -101 -17 -180 0 -156 28 -240 119 -362 74 -98 155
-165 260 -213 72 -34 182 -65 226 -65 14 0 29 -3 32 -7 4 -3 42 -5 84 -4 225
7 405 89 467 213 45 91 28 147 -63 202 -103 63 -102 60 -29 163 35 48 89 127
120 174 45 68 63 88 86 92 53 11 132 100 132 149 0 25 58 133 83 157 22 20 24
26 14 42 -7 11 -22 19 -34 19 -13 0 -23 5 -23 12 0 6 -10 2 -22 -9 -13 -11
-58 -37 -100 -57 -120 -56 -179 -142 -163 -235 5 -31 2 -41 -19 -62 -14 -14
-63 -83 -110 -154 l-84 -128 -11 39 c-6 22 -23 127 -36 234 -14 108 -33 213
-43 235 -24 55 -77 112 -131 140 -74 37 -250 64 -285 43z m213 -32 c100 -27
176 -99 199 -188 6 -24 21 -121 32 -215 11 -95 27 -194 35 -219 l14 -47 -93
-151 c-51 -83 -123 -206 -162 -272 l-69 -122 -35 5 c-83 12 -161 37 -247 79
-121 60 -217 157 -273 278 -51 108 -64 182 -57 314 14 267 144 449 377 529 77
27 197 30 279 9z m775 -58 c-6 -10 -4 -10 7 0 16 14 33 16 24 2 -3 -5 -2 -10
4 -10 6 0 0 -15 -12 -34 -23 -35 -37 -38 -37 -8 0 15 2 15 10 2 8 -13 10 -13
10 2 0 9 3 18 8 21 4 2 0 2 -8 -1 -8 -2 -20 -5 -27 -5 -6 0 -9 -6 -6 -14 3 -7
1 -13 -4 -13 -18 0 -11 40 10 55 26 18 30 19 21 3z m-54 -28 c0 -5 -8 -10 -17
-11 -14 0 -13 -3 5 -11 12 -6 22 -15 22 -20 0 -5 5 -6 11 -2 17 10 29 -17 18
-39 -6 -10 -17 -44 -25 -75 -42 -160 -216 -195 -216 -44 0 56 11 83 56 130 32
34 71 59 116 73 14 4 26 8 28 8 1 1 2 -3 2 -9z m-175 -298 c34 -27 17 -50 -19
-27 -27 18 -31 27 -19 38 9 10 12 9 38 -11z m-168 -416 c15 -13 42 -30 60 -39
79 -41 96 -119 43 -199 -64 -97 -217 -166 -390 -175 l-95 -6 26 29 c21 24 61
75 136 173 9 13 10 10 6 -13 -10 -52 49 -72 122 -42 74 31 71 95 -5 130 l-49
23 51 71 c28 40 55 72 59 72 4 0 20 -11 36 -24z m-152 -156 c-4 -7 2 -9 18 -5
17 5 32 0 52 -17 27 -24 27 -24 7 -47 -21 -26 -60 -38 -109 -32 -18 2 -16 31
3 38 12 4 13 8 3 14 -10 6 -10 13 -1 33 6 14 16 26 22 26 6 0 8 -5 5 -10z"/>
<path d="M5601 5079 c-57 -45 -57 -47 -13 -114 25 -39 30 -42 74 -43 72 -1 94
21 91 95 -2 50 -7 61 -30 80 -40 32 -63 29 -122 -18z m104 5 c13 -5 14 -8 3
-15 -10 -7 -10 -9 2 -9 11 0 15 -13 15 -53 l0 -52 -50 -3 c-47 -2 -51 -1 -72
33 -25 38 -29 55 -13 55 6 0 20 11 32 25 21 25 50 31 83 19z"/>
<path d="M5640 5070 c-8 -5 -11 -12 -8 -16 4 -3 14 1 23 10 18 17 9 21 -15 6z"/>
<path d="M5650 5034 c-13 -13 -20 -24 -14 -24 5 0 15 5 22 12 14 14 16 0 3
-21 -10 -15 -4 -41 9 -41 5 0 6 10 3 23 -3 16 -2 18 5 9 7 -11 10 -9 15 7 3
12 1 19 -4 15 -5 -3 -9 5 -9 17 0 19 2 20 18 8 15 -13 16 -12 3 4 -17 22 -21
21 -51 -9z"/>
<path d="M5627 4979 c4 -13 8 -18 11 -10 2 7 -1 18 -6 23 -8 8 -9 4 -5 -13z"/>
<path d="M5234 5061 c-40 -24 -74 -80 -74 -119 0 -19 10 -41 24 -57 21 -22 23
-31 15 -53 -7 -19 -6 -29 5 -40 13 -13 21 -14 58 -3 74 22 90 31 95 51 3 11
13 20 23 20 48 0 67 33 35 60 -21 17 -19 29 7 50 21 17 21 18 5 43 -11 18 -29
28 -54 32 -21 3 -51 12 -66 20 -36 19 -36 19 -73 -4z m99 -28 c33 -6 36 -23 5
-24 -22 -1 -22 -1 2 -9 l25 -8 -25 -2 -25 -2 25 -8 c16 -5 19 -8 8 -9 -18 -1
-34 -19 -24 -28 3 -3 12 2 21 11 24 24 34 20 30 -13 -2 -19 2 -31 11 -35 9 -3
12 -10 9 -16 -4 -6 -11 -8 -16 -5 -13 9 -57 -27 -52 -42 3 -7 -8 -15 -24 -18
-15 -4 -38 -11 -50 -17 -33 -16 -45 -7 -29 23 12 24 11 29 -12 59 -38 48 -37
75 6 121 30 34 40 40 61 34 14 -3 38 -9 54 -12z m61 -19 c19 -7 21 -30 3 -37
-17 -6 -33 4 -31 21 3 25 3 25 28 16z"/>
<path d="M5241 5016 c-14 -14 -20 -26 -14 -26 6 0 13 7 17 15 3 8 11 15 18 15
9 0 9 -3 0 -12 -14 -14 -16 -28 -4 -28 5 0 14 12 20 26 7 14 8 23 3 20 -5 -4
-11 -1 -13 5 -2 5 -14 -1 -27 -15z"/>
<path d="M5220 4970 c-12 -7 -11 -9 5 -8 11 0 28 -3 38 -7 10 -4 17 -3 17 4 0
6 8 11 18 12 11 0 12 2 4 6 -7 3 -19 0 -26 -7 -10 -7 -16 -8 -21 0 -8 12 -16
13 -35 0z"/>
<path d="M5190 4961 c0 -6 4 -13 10 -16 6 -3 7 1 4 9 -7 18 -14 21 -14 7z"/>
<path d="M5230 4940 c0 -5 5 -10 10 -10 6 0 10 5 10 10 0 6 -4 10 -10 10 -5 0
-10 -4 -10 -10z"/>
<path d="M5247 4903 c-12 -12 -7 -22 8 -17 8 4 15 1 15 -5 0 -6 -5 -11 -12
-11 -6 0 -9 -2 -6 -5 3 -3 12 -3 21 1 13 5 14 10 6 25 -10 20 -21 24 -32 12z"/>
<path d="M5276 4851 c-4 -5 -1 -13 5 -17 8 -4 9 -3 5 4 -4 7 -3 12 3 12 5 0
12 -5 14 -10 3 -6 4 -5 3 2 -3 16 -23 22 -30 9z"/>
<path d="M5242 4830 c-7 -11 -8 -20 -3 -20 9 0 24 30 18 36 -1 2 -8 -6 -15
-16z"/>
<path d="M5380 5000 c0 -5 5 -10 11 -10 5 0 7 5 4 10 -3 6 -8 10 -11 10 -2 0
-4 -4 -4 -10z"/>
<path d="M5727 4719 c-27 -16 -57 -84 -57 -132 0 -47 21 -77 54 -77 26 0 77
28 114 63 43 42 43 78 -2 123 -35 35 -74 44 -109 23z m98 -34 c36 -35 33 -76
-7 -110 -20 -17 -40 -25 -54 -22 -13 2 -21 0 -18 -4 3 -5 -6 -9 -20 -9 -21 0
-25 6 -31 40 -7 42 -1 72 23 108 20 31 75 30 107 -3z"/>
<path d="M5710 4559 c0 -5 5 -7 10 -4 6 3 10 8 10 11 0 2 -4 4 -10 4 -5 0 -10
-5 -10 -11z"/>
<path d="M5233 4625 c-33 -23 -73 -97 -73 -134 0 -22 9 -40 28 -58 15 -14 26
-31 24 -39 -2 -8 2 -22 7 -32 9 -16 19 -18 63 -15 45 4 58 10 85 40 41 45 51
94 29 139 -9 19 -16 45 -16 57 0 36 -12 45 -70 52 -42 5 -60 2 -77 -10z m97
-18 c8 -1 18 -13 22 -27 4 -14 12 -43 19 -66 14 -46 8 -81 -19 -112 -20 -22
-52 -30 -52 -12 0 9 25 42 58 76 14 15 16 28 3 20 -5 -3 -11 1 -15 9 -3 8 -13
15 -22 15 -12 0 -15 -6 -10 -24 4 -17 -2 -31 -20 -52 -26 -27 -26 -27 -20 -3
7 22 6 23 -6 4 -13 -22 -23 -67 -11 -50 12 16 30 15 30 -1 0 -8 -10 -14 -25
-14 -23 0 -24 2 -19 46 2 26 1 41 -3 34 -7 -11 -13 -10 -33 3 -40 26 -25 89
35 149 14 14 27 18 46 14 15 -4 34 -8 42 -9z"/>
<path d="M5276 4595 c-3 -8 -1 -15 4 -15 6 0 10 7 10 15 0 8 -2 15 -4 15 -2 0
-6 -7 -10 -15z"/>
<path d="M5243 4588 c-10 -14 -17 -78 -7 -78 3 0 12 6 20 14 16 16 18 44 5 64
-6 11 -10 11 -18 0z"/>
<path d="M5220 4469 c0 -5 5 -7 10 -4 6 3 10 8 10 11 0 2 -4 4 -10 4 -5 0 -10
-5 -10 -11z"/>
<path d="M5540 4353 c-14 -2 -36 -9 -49 -16 -20 -10 -22 -17 -18 -52 6 -54 46
-145 64 -145 8 0 27 -7 43 -15 16 -8 35 -12 42 -10 25 10 48 62 48 110 0 39
-6 54 -36 91 -36 43 -42 46 -94 37z m60 -35 c21 -23 27 -44 10 -33 -5 3 -10 1
-10 -4 0 -6 10 -10 23 -8 20 2 22 -2 22 -51 -1 -69 -17 -86 -67 -70 -38 11
-52 31 -78 111 -14 45 -2 67 34 60 13 -3 27 0 30 6 10 15 12 14 36 -11z"/>
<path d="M5546 4278 c-15 -43 -15 -48 -1 -48 8 0 15 -4 15 -10 0 -5 -4 -10
-10 -10 -5 0 -6 -8 -3 -17 6 -15 7 -14 14 3 7 20 7 19 22 -26 3 -8 6 -3 6 11
1 25 24 45 39 35 4 -2 7 7 7 20 0 21 -4 23 -33 18 -27 -4 -34 -2 -41 18 -8 20
-10 21 -15 6z m44 -54 c0 -8 -4 -12 -10 -9 -5 3 -10 10 -10 16 0 5 5 9 10 9 6
0 10 -7 10 -16z"/>
<path d="M6371 5074 c0 -11 3 -14 6 -6 3 7 2 16 -1 19 -3 4 -6 -2 -5 -13z"/>
<path d="M5900 4245 c-6 -7 -13 -20 -14 -27 -1 -7 -5 -19 -9 -25 -5 -8 -3 -11
5 -8 7 3 18 21 24 40 12 39 12 41 -6 20z"/>
<path d="M5921 4232 c-7 -14 -6 -19 4 -19 17 0 28 24 15 32 -5 3 -13 -3 -19
-13z"/>
<path d="M5910 4189 c0 -5 5 -7 10 -4 6 3 10 8 10 11 0 2 -4 4 -10 4 -5 0 -10
-5 -10 -11z"/>
<path d="M5264 5249 c-3 -6 1 -18 11 -27 16 -16 17 -16 7 4 -6 12 -8 24 -5 28
3 3 4 6 0 6 -3 0 -9 -5 -13 -11z"/>
<path d="M4960 5224 c0 -8 4 -13 9 -9 6 3 7 -9 4 -31 -4 -25 -3 -35 4 -31 16
10 13 75 -3 81 -8 3 -14 -1 -14 -10z"/>
<path d="M3207 5202 c1 -8 3 -39 3 -69 0 -76 7 -64 13 20 2 38 1 63 -3 57 -4
-7 -10 -8 -12 -4 -3 5 -3 3 -1 -4z"/>
<path d="M4980 5133 c-22 -11 -19 -12 35 -8 32 3 62 8 67 13 13 13 -76 9 -102
-5z"/>
<path d="M5050 5112 c0 -5 -11 -15 -25 -22 -20 -11 -25 -21 -25 -52 0 -21 4
-38 8 -38 17 0 42 37 42 63 0 14 5 29 10 32 6 3 10 10 10 16 0 5 -4 9 -10 9
-5 0 -10 -4 -10 -8z"/>
<path d="M3231 5054 c0 -11 3 -14 6 -6 3 7 2 16 -1 19 -3 4 -6 -2 -5 -13z"/>
<path d="M3200 5055 c0 -5 5 -17 10 -25 5 -8 10 -10 10 -5 0 6 -5 17 -10 25
-5 8 -10 11 -10 5z"/>
<path d="M5051 5019 c-7 -12 -10 -23 -8 -26 3 -3 11 5 17 17 6 12 10 23 8 25
-2 2 -10 -5 -17 -16z"/>
<path d="M2215 5012 c-4 -12 -12 -21 -19 -20 -20 4 -56 -22 -55 -40 0 -14 2
-14 10 3 7 15 8 12 4 -15 -3 -22 -2 -30 4 -21 7 11 10 10 18 -4 9 -15 12 -14
24 13 7 17 20 33 29 36 11 3 11 4 -2 5 -20 1 -24 17 -7 23 6 2 9 13 6 23 -5
19 -5 19 -12 -3z"/>
<path d="M2240 5009 c0 -11 8 -15 28 -14 43 3 45 4 32 20 -16 20 -60 16 -60
-6z"/>
<path d="M4627 5013 c-10 -9 -9 -53 2 -53 6 0 11 60 5 60 0 0 -4 -3 -7 -7z"/>
<path d="M2338 4994 c27 -19 28 -34 2 -34 -11 0 -20 -4 -20 -9 0 -10 39 -27
53 -23 4 1 10 -5 13 -13 3 -8 11 -12 17 -8 6 4 8 0 5 -9 -4 -9 0 -15 10 -15
21 0 42 16 42 31 0 6 -7 2 -15 -8 -8 -11 -18 -17 -22 -13 -3 4 2 17 13 29 10
12 13 18 7 14 -25 -14 -53 -15 -53 -1 0 7 -6 16 -12 18 -10 4 -9 6 1 6 16 1
-37 51 -54 51 -5 0 1 -7 13 -16z"/>
<path d="M2320 4980 c0 -5 5 -10 11 -10 5 0 7 5 4 10 -3 6 -8 10 -11 10 -2 0
-4 -4 -4 -10z"/>
<path d="M2403 4960 c-1 -11 2 -22 8 -25 5 -4 8 3 6 14 -4 28 -12 34 -14 11z"/>
<path d="M2920 4950 c0 -5 5 -10 10 -10 6 0 10 5 10 10 0 6 -4 10 -10 10 -5 0
-10 -4 -10 -10z"/>
<path d="M2963 4945 c0 -5 13 -10 29 -9 41 1 45 11 5 16 -19 2 -34 -1 -34 -7z"/>
<path d="M3074 4948 c-3 -4 0 -8 6 -8 7 0 9 -8 5 -22 -5 -15 -4 -20 3 -13 19
19 23 52 7 52 -9 0 -18 -4 -21 -9z"/>
<path d="M3180 4940 c0 -23 16 -35 26 -19 5 8 2 10 -7 5 -8 -4 -5 0 5 8 11 9
25 16 30 15 6 0 5 -3 -1 -6 -7 -2 -13 -9 -13 -15 0 -6 6 -6 15 2 20 17 12 27
-25 28 -23 0 -30 -4 -30 -18z"/>
<path d="M4970 4930 c-7 -17 -10 -33 -8 -36 3 -3 8 7 12 21 4 14 11 25 16 25
6 0 10 5 10 10 0 21 -18 9 -30 -20z"/>
<path d="M5009 4943 c-21 -25 -51 -94 -44 -101 3 -3 5 1 6 9 0 9 4 6 10 -6 8
-16 8 -15 4 8 -4 18 -2 26 4 22 6 -3 8 0 5 8 -3 8 1 21 8 28 13 13 31 49 24
49 -1 0 -9 -8 -17 -17z"/>
<path d="M2738 4943 c7 -3 16 -2 19 1 4 3 -2 6 -13 5 -11 0 -14 -3 -6 -6z"/>
<path d="M3281 4933 c-2 -32 9 -53 28 -53 15 1 15 2 -1 13 -9 7 -18 24 -21 37
-4 22 -4 23 -6 3z"/>
<path d="M3310 4930 c0 -11 4 -20 9 -20 5 0 7 9 4 20 -3 11 -7 20 -9 20 -2 0
-4 -9 -4 -20z"/>
<path d="M2670 4930 c0 -5 5 -10 10 -10 6 0 10 5 10 10 0 6 -4 10 -10 10 -5 0
-10 -4 -10 -10z"/>
<path d="M2975 4889 c-69 -47 -114 -68 -65 -29 14 11 20 20 14 20 -12 0 -52
-40 -44 -46 3 -2 -10 -14 -28 -28 -18 -13 -30 -26 -25 -29 7 -4 113 -16 210
-22 23 -2 51 -6 62 -10 15 -4 20 -2 17 7 -38 120 -59 178 -64 181 -4 2 -38
-18 -77 -44z m99 -87 c7 -20 4 -22 -32 -22 -21 0 -67 3 -100 6 l-61 7 77 52
77 52 16 -36 c9 -20 19 -46 23 -59z"/>
<path d="M3020 4870 c0 -5 5 -10 11 -10 5 0 7 5 4 10 -3 6 -8 10 -11 10 -2 0
-4 -4 -4 -10z"/>
<path d="M3015 4840 c-4 -6 -16 -8 -27 -4 -14 4 -18 2 -14 -5 4 -6 13 -11 19
-11 18 0 42 18 35 25 -3 4 -9 1 -13 -5z"/>
<path d="M2936 4817 c-16 -12 -16 -13 2 -13 10 0 19 6 19 13 0 7 -1 13 -2 13
-1 0 -9 -6 -19 -13z"/>
<path d="M3020 4810 c-9 -6 -10 -10 -3 -10 6 0 15 5 18 10 8 12 4 12 -15 0z"/>
<path d="M3050 4811 c0 -6 4 -13 10 -16 6 -3 7 1 4 9 -7 18 -14 21 -14 7z"/>
<path d="M2974 4915 c-18 -14 -18 -14 4 -8 12 3 22 9 22 14 0 12 -3 11 -26 -6z"/>
<path d="M4601 4914 c0 -11 3 -14 6 -6 3 7 2 16 -1 19 -3 4 -6 -2 -5 -13z"/>
<path d="M4622 4905 c-8 -17 -8 -25 -1 -25 6 0 -2 -11 -18 -24 -17 -14 -29
-35 -31 -51 -1 -16 -7 -34 -12 -40 -6 -7 -9 -18 -8 -25 2 -7 -7 -16 -20 -21
-13 -5 -21 -5 -18 0 3 5 -1 14 -9 21 -11 9 -15 9 -15 1 0 -7 -4 -10 -9 -7 -5
3 -15 -2 -22 -11 -12 -15 -12 -16 1 -8 24 15 40 14 40 -1 0 -7 -6 -11 -13 -8
-9 3 -13 -3 -12 -17 1 -13 7 -25 13 -27 11 -3 92 34 92 44 0 2 -10 0 -22 -7
-17 -8 -15 -3 10 21 31 30 48 91 20 74 -10 -6 -10 -5 -1 8 7 8 10 18 6 21 -3
4 4 15 17 25 13 10 24 32 26 50 5 39 1 40 -14 7z"/>
<path d="M2700 4911 c0 -5 5 -13 10 -16 6 -3 10 -2 10 4 0 5 -4 13 -10 16 -5
3 -10 2 -10 -4z"/>
<path d="M2664 4895 c11 -8 25 -15 30 -15 6 0 2 7 -8 15 -11 8 -25 15 -30 15
-6 0 -2 -7 8 -15z"/>
<path d="M2240 4891 c-8 -6 -18 -7 -22 -5 -4 3 -8 1 -8 -5 0 -6 -8 -8 -17 -5
-15 5 -15 4 -4 -4 10 -7 21 -7 32 -1 10 5 25 6 33 3 12 -5 15 -2 10 10 -7 19
-5 18 -24 7z"/>
<path d="M2466 4892 c-3 -5 1 -9 9 -9 8 0 12 4 9 9 -3 4 -7 8 -9 8 -2 0 -6 -4
-9 -8z"/>
<path d="M3096 4884 c-9 -23 -7 -31 4 -14 8 13 10 12 10 -4 0 -11 3 -17 6 -13
7 7 44 -24 44 -38 0 -5 -5 -3 -11 5 -9 12 -10 12 -7 1 3 -8 10 -17 16 -19 13
-4 17 50 5 62 -5 4 -8 12 -8 18 0 6 -8 12 -17 14 -11 1 -15 -3 -11 -14 4 -15
3 -14 -10 1 -13 16 -15 16 -21 1z"/>
<path d="M2625 4867 c-20 -29 -4 -43 31 -26 33 16 34 30 5 41 -15 5 -24 2 -36
-15z"/>
<path d="M3360 4890 c0 -3 4 -20 9 -37 5 -18 6 -35 1 -38 -14 -9 -7 -93 7 -88
16 6 17 25 1 41 -10 10 -8 19 6 44 11 17 14 28 7 24 -7 -4 -11 0 -11 11 0 15
-19 57 -20 43z"/>
<path d="M2290 4870 c20 -13 33 -13 25 0 -3 6 -14 10 -23 10 -15 0 -15 -2 -2
-10z"/>
<path d="M2840 4870 c-13 -8 -12 -10 3 -10 9 0 17 5 17 10 0 12 -1 12 -20 0z"/>
<path d="M2224 4859 c-3 -5 -4 -9 -2 -10 27 -5 67 -5 63 1 -7 12 -55 18 -61 9z"/>
<path d="M2180 4856 c0 -3 9 -10 20 -16 11 -6 20 -8 20 -6 0 3 -9 10 -20 16
-11 6 -20 8 -20 6z"/>
<path d="M2513 4837 c33 -32 47 -34 47 -7 0 13 -7 20 -19 20 -11 0 -28 3 -38
7 -12 4 -9 -2 10 -20z"/>
<path d="M3344 4844 c4 -9 1 -23 -5 -30 -7 -9 -8 -14 -1 -14 11 0 22 23 22 46
0 8 -5 14 -11 14 -6 0 -8 -7 -5 -16z"/>
<path d="M2800 4839 c0 -5 5 -7 10 -4 6 3 10 8 10 11 0 2 -4 4 -10 4 -5 0 -10
-5 -10 -11z"/>
<path d="M2294 4816 c-10 -21 -9 -23 4 -18 10 3 13 1 8 -6 -3 -6 -1 -14 5 -18
8 -5 9 -3 4 5 -5 9 -2 12 11 9 11 -2 18 -11 18 -20 -1 -10 4 -14 13 -11 8 3
12 12 9 20 -4 11 -1 11 14 3 14 -7 20 -7 20 0 0 5 -6 11 -12 11 -7 1 -20 3
-28 4 -8 1 -23 3 -33 4 -14 1 -17 6 -12 21 9 28 -8 25 -21 -4z"/>
<path d="M2733 4833 c-7 -3 -13 -12 -12 -21 0 -11 2 -12 6 -4 2 6 9 12 14 12
6 0 7 -4 4 -10 -3 -5 -1 -10 4 -10 12 0 15 27 4 33 -5 2 -14 2 -20 0z"/>
<path d="M2830 4830 c0 -5 7 -7 15 -4 8 4 15 8 15 10 0 2 -7 4 -15 4 -8 0 -15
-4 -15 -10z"/>
<path d="M3320 4830 c0 -5 5 -10 10 -10 6 0 10 5 10 10 0 6 -4 10 -10 10 -5 0
-10 -4 -10 -10z"/>
<path d="M2240 4826 c0 -2 7 -7 16 -10 8 -3 12 -2 9 4 -6 10 -25 14 -25 6z"/>
<path d="M2570 4816 c0 -9 5 -16 10 -16 6 0 10 4 10 9 0 6 -4 13 -10 16 -5 3
-10 -1 -10 -9z"/>
<path d="M2395 4810 c3 -5 15 -10 26 -10 11 0 17 5 14 10 -3 6 -15 10 -26 10
-11 0 -17 -4 -14 -10z"/>
<path d="M4966 4795 c4 -8 8 -15 10 -15 2 0 4 7 4 15 0 8 -4 15 -10 15 -5 0
-7 -7 -4 -15z"/>
<path d="M2520 4797 c0 -5 7 -15 15 -23 8 -8 12 -22 9 -32 -5 -14 -3 -14 6 2
10 15 9 22 -9 39 -11 12 -21 18 -21 14z"/>
<path d="M3390 4798 c0 -4 5 -18 11 -32 10 -20 9 -29 -2 -42 -13 -16 -12 -16
9 -5 12 6 22 18 22 25 0 14 -39 67 -40 54z"/>
<path d="M4526 4777 c3 -10 9 -15 12 -12 3 3 0 11 -7 18 -10 9 -11 8 -5 -6z"/>
<path d="M2807 4761 c2 -8 -2 -11 -12 -7 -8 3 -15 1 -15 -3 0 -5 6 -11 14 -14
9 -3 12 -15 9 -31 -4 -18 -1 -26 9 -26 9 0 14 9 14 23 -1 18 4 22 24 19 19 -2
22 0 10 8 -8 5 -24 10 -35 11 l-20 0 20 9 c16 7 17 9 3 9 -9 1 -18 4 -21 9 -2
4 -2 1 0 -7z"/>
<path d="M2365 4750 c-3 -5 3 -10 14 -10 11 0 23 -5 27 -12 5 -8 2 -9 -12 -4
-16 6 -16 5 3 -13 23 -22 38 -28 28 -11 -3 6 -1 10 4 10 6 0 11 -4 11 -10 0
-5 6 -10 13 -10 7 1 3 8 -8 18 -11 9 -19 25 -17 35 3 13 -3 17 -27 17 -16 0
-33 -4 -36 -10z"/>
<path d="M2870 4750 c-8 -5 -10 -10 -5 -10 6 0 17 5 25 10 8 5 11 10 5 10 -5
0 -17 -5 -25 -10z"/>
<path d="M2910 4740 c0 -5 -8 -10 -17 -11 -10 0 -13 -3 -6 -5 6 -3 24 2 40 10
26 14 27 15 6 16 -13 0 -23 -4 -23 -10z"/>
<path d="M4525 4740 c3 -5 11 -10 16 -10 6 0 7 5 4 10 -3 6 -11 10 -16 10 -6
0 -7 -4 -4 -10z"/>
<path d="M3136 4725 c-3 -9 -5 -29 -5 -43 1 -24 3 -23 10 8 8 35 8 35 6 -8 -2
-25 2 -41 8 -39 11 4 8 77 -5 90 -4 5 -10 1 -14 -8z"/>
<path d="M3018 4723 c48 -9 7 -23 -69 -23 -46 0 -79 -4 -79 -10 0 -6 33 -10
78 -10 43 0 83 -5 89 -11 15 -15 26 6 19 37 -5 19 -13 24 -34 23 -23 -2 -24
-2 -4 -6z"/>
<path d="M3098 4723 c7 -3 16 -2 19 1 4 3 -2 6 -13 5 -11 0 -14 -3 -6 -6z"/>
<path d="M2470 4678 c5 -24 6 -47 3 -53 -3 -5 0 -5 7 2 11 10 16 7 27 -14 7
-14 13 -32 13 -39 0 -8 5 -14 11 -14 7 0 9 10 5 28 -4 15 -10 40 -13 55 -4 22
-10 28 -24 24 -15 -4 -19 0 -19 24 0 16 -4 29 -9 29 -4 0 -5 -19 -1 -42z"/>
<path d="M2837 4709 c7 -7 15 -10 18 -7 3 3 -2 9 -12 12 -14 6 -15 5 -6 -5z"/>
<path d="M3360 4702 c0 -5 7 -17 15 -28 8 -10 15 -27 15 -37 0 -10 5 -15 10
-12 6 4 8 11 4 16 -3 5 0 16 6 24 6 8 10 22 7 32 -4 14 -5 13 -6 -4 -1 -28
-17 -30 -26 -3 -6 19 -25 28 -25 12z"/>
<path d="M4420 4685 c-18 -10 -20 -14 -8 -15 9 0 19 4 23 10 3 5 12 7 20 3 8
-3 15 0 15 6 0 15 -20 13 -50 -4z"/>
<path d="M4450 4655 c7 -8 17 -15 22 -15 6 0 5 7 -2 15 -7 8 -17 15 -22 15 -6
0 -5 -7 2 -15z"/>
<path d="M3367 4640 c8 -31 9 -47 0 -85 -3 -16 -4 -24 -1 -17 9 19 24 14 17
-5 -6 -16 -5 -17 11 -3 11 8 14 16 7 18 -6 2 -8 9 -5 14 4 7 2 8 -4 4 -7 -4
-12 -1 -12 8 0 8 5 18 11 22 6 3 7 9 2 13 -5 3 -14 17 -21 31 l-12 25 7 -25z"/>
<path d="M4390 4649 c0 -4 11 -6 24 -5 13 0 22 4 20 8 -6 9 -44 6 -44 -3z"/>
<path d="M2538 4628 c7 -7 12 -21 12 -32 0 -10 3 -17 6 -13 10 10 -5 57 -18
57 -9 0 -9 -3 0 -12z"/>
<path d="M4524 4631 c3 -5 -1 -12 -10 -15 -11 -4 -13 -13 -9 -27 6 -17 4 -21
-8 -16 -11 4 -15 0 -14 -13 1 -20 27 -38 27 -19 0 6 4 8 9 5 5 -3 11 1 15 9 3
8 1 15 -4 15 -19 0 -10 42 10 47 26 7 26 23 -1 23 -11 0 -18 -4 -15 -9z"/>
<path d="M4597 4626 c-4 -9 -13 -13 -22 -10 -12 5 -15 -1 -13 -29 2 -19 6 -33
9 -31 7 4 29 -41 29 -60 0 -7 -27 -21 -62 -31 -71 -21 -87 -30 -72 -45 6 -6
27 -3 59 9 91 34 99 35 92 17 -4 -10 -3 -14 2 -11 5 3 15 -11 22 -30 7 -19 17
-35 22 -35 5 0 7 -7 3 -15 -3 -8 -1 -15 5 -15 14 0 8 72 -8 88 -30 31 -15 49
60 74 39 13 73 29 75 36 3 17 -16 15 -93 -12 -68 -24 -70 -24 -83 -5 -23 33
-33 81 -20 96 6 7 9 16 6 19 -3 3 -8 -2 -11 -10z"/>
<path d="M4622 4620 c-17 -28 -15 -47 4 -24 15 19 15 19 9 -2 -4 -16 0 -23 15
-27 21 -5 23 -25 5 -40 -6 -5 -2 -6 8 -3 10 3 24 6 30 6 8 0 8 3 -1 8 -10 7
-8 15 8 35 18 22 19 27 6 27 -9 0 -16 -6 -16 -12 0 -8 -7 -5 -15 6 -11 15 -15
16 -16 5 0 -8 -6 -2 -13 13 -11 26 -12 26 -24 8z"/>
<path d="M4440 4615 c0 -8 7 -15 15 -15 8 0 15 7 15 15 0 8 -7 15 -15 15 -8 0
-15 -7 -15 -15z"/>
<path d="M4376 4601 c-3 -4 1 -17 9 -27 14 -18 14 -18 15 9 0 26 -13 36 -24
18z"/>
<path d="M2853 4584 c10 -10 -14 -64 -29 -64 -8 0 -14 -6 -14 -12 0 -10 -2
-10 -9 0 -6 10 -10 9 -14 -7 -3 -14 0 -21 9 -21 8 0 14 -4 14 -9 0 -11 49 -21
55 -10 3 4 -3 9 -13 11 -16 3 -17 8 -10 35 5 18 14 32 21 30 6 -1 13 10 15 26
3 20 -1 27 -14 27 -10 0 -15 -3 -11 -6z"/>
<path d="M2500 4566 c0 -8 7 -17 16 -20 23 -9 24 -4 2 17 -14 13 -18 14 -18 3z"/>
<path d="M4615 4560 c3 -5 8 -10 11 -10 2 0 4 5 4 10 0 6 -5 10 -11 10 -5 0
-7 -4 -4 -10z"/>
<path d="M2580 4550 c0 -5 7 -7 15 -4 8 4 15 8 15 10 0 2 -7 4 -15 4 -8 0 -15
-4 -15 -10z"/>
<path d="M2777 4540 c-3 -11 -3 -20 -1 -20 2 0 8 9 14 20 6 11 7 20 2 20 -6 0
-12 -9 -15 -20z"/>
<path d="M4201 4552 c-1 -7 -11 -16 -23 -21 -12 -4 -17 -11 -11 -14 15 -9 47
17 40 34 -4 10 -6 10 -6 1z"/>
<path d="M4720 4550 c-8 -5 -10 -10 -5 -10 6 0 17 5 25 10 8 5 11 10 5 10 -5
0 -17 -5 -25 -10z"/>
<path d="M4519 4524 c-1 -5 -2 -18 -3 -29 -1 -16 -8 -20 -39 -20 -22 1 -36 -3
-34 -10 4 -12 49 -8 86 8 14 5 29 10 33 9 3 -1 9 5 12 14 3 9 2 12 -5 9 -6 -4
-19 1 -30 11 -10 9 -19 13 -20 8z"/>
<path d="M3360 4511 c0 -6 4 -13 10 -16 6 -3 7 1 4 9 -7 18 -14 21 -14 7z"/>
<path d="M4317 4499 c-17 -19 -17 -20 10 -16 16 2 29 11 31 20 5 23 -19 20
-41 -4z"/>
<path d="M4750 4500 c-8 -5 -12 -11 -10 -14 3 -2 14 2 24 10 22 15 10 19 -14
4z"/>
<path d="M822 4484 c-34 -23 -28 -84 10 -102 65 -31 118 49 66 98 -26 24 -46
25 -76 4z m79 -27 c17 -31 -4 -67 -39 -67 -34 0 -52 16 -52 46 0 48 69 64 91
21z"/>
<path d="M4960 4480 c0 -5 5 -10 11 -10 5 0 7 5 4 10 -3 6 -8 10 -11 10 -2 0
-4 -4 -4 -10z"/>
<path d="M4407 4460 c3 -11 9 -20 13 -20 5 0 12 -9 15 -20 3 -11 10 -20 15
-20 4 0 6 9 3 20 -3 11 -9 20 -13 20 -5 0 -12 9 -15 20 -3 11 -10 20 -15 20
-4 0 -6 -9 -3 -20z"/>
<path d="M4678 4452 c5 -25 5 -25 20 3 9 17 7 21 -7 21 -13 0 -16 -6 -13 -24z"/>
<path d="M3365 4415 c2 -33 4 -67 4 -76 1 -9 8 -20 17 -23 14 -5 15 -4 4 9 -7
9 -10 25 -6 41 5 19 4 24 -5 18 -8 -5 -10 -2 -7 8 4 8 2 30 -2 49 -6 27 -8 21
-5 -26z"/>
<path d="M4780 4450 c0 -11 5 -20 10 -20 6 0 10 9 10 20 0 11 -4 20 -10 20 -5
0 -10 -9 -10 -20z"/>
<path d="M2884 4446 c-3 -8 -15 -11 -31 -8 -18 3 -24 1 -19 -7 4 -6 14 -11 22
-11 8 0 14 -5 14 -12 0 -9 3 -9 12 0 7 7 25 12 40 12 37 0 36 15 -2 29 -24 8
-32 7 -36 -3z"/>
<path d="M4970 4450 c-8 -5 -11 -12 -7 -16 4 -4 13 -2 19 4 15 15 7 24 -12 12z"/>
<path d="M4136 4414 c-3 -9 -6 -31 -6 -49 0 -18 -6 -36 -12 -38 -8 -3 -6 -6 5
-6 14 -1 17 7 17 43 0 26 5 46 12 48 8 3 9 6 1 11 -6 4 -14 0 -17 -9z"/>
<path d="M4400 4421 c0 -5 5 -13 10 -16 6 -3 10 -2 10 4 0 5 -4 13 -10 16 -5
3 -10 2 -10 -4z"/>
<path d="M4535 4420 c-16 -7 -17 -9 -3 -9 9 -1 20 4 23 9 7 11 7 11 -20 0z"/>
<path d="M4694 4415 c-3 -8 -4 -20 -1 -27 3 -8 6 -6 6 5 1 10 5 15 11 12 6 -3
7 1 4 9 -8 20 -13 20 -20 1z"/>
<path d="M4583 4413 c9 -2 23 -2 30 0 6 3 -1 5 -18 5 -16 0 -22 -2 -12 -5z"/>
<path d="M4971 4393 c-1 -17 -4 -40 -7 -50 -6 -16 -5 -16 9 -3 12 12 14 23 7
50 l-8 35 -1 -32z"/>
<path d="M3015 4390 c3 -5 11 -10 16 -10 6 0 7 5 4 10 -3 6 -11 10 -16 10 -6
0 -7 -4 -4 -10z"/>
<path d="M4151 4384 c0 -11 3 -14 6 -6 3 7 2 16 -1 19 -3 4 -6 -2 -5 -13z"/>
<path d="M4711 4378 c-1 -10 -5 -18 -10 -18 -5 0 -11 -9 -14 -20 -3 -11 -2
-20 2 -20 13 0 34 47 28 62 -4 9 -6 7 -6 -4z"/>
<path d="M4997 4383 c-4 -6 2 -22 14 -34 16 -20 18 -20 11 -4 -5 11 -11 27
-14 35 -3 9 -7 10 -11 3z"/>
<path d="M2410 4370 c8 -5 20 -10 25 -10 6 0 3 5 -5 10 -8 5 -19 10 -25 10 -5
0 -3 -5 5 -10z"/>
<path d="M4480 4365 c0 -10 10 -15 29 -15 16 0 34 -7 41 -15 7 -8 26 -15 43
-15 33 0 27 15 -8 22 -12 2 -19 10 -17 21 2 14 -5 17 -43 17 -33 0 -45 -4 -45
-15z"/>
<path d="M2358 4363 c7 -3 16 -2 19 1 4 3 -2 6 -13 5 -11 0 -14 -3 -6 -6z"/>
<path d="M2710 4356 c0 -9 5 -16 10 -16 6 0 10 4 10 9 0 6 -4 13 -10 16 -5 3
-10 -1 -10 -9z"/>
<path d="M2743 4351 c-1 -11 5 -26 14 -33 14 -11 15 -10 8 12 -10 34 -20 44
-22 21z"/>
<path d="M1977 4340 c9 -11 20 -16 23 -11 3 4 12 11 20 15 8 3 5 4 -7 2 -13
-2 -23 0 -23 5 0 5 -7 9 -15 9 -12 0 -12 -3 2 -20z"/>
<path d="M2835 4325 c0 -19 3 -35 8 -35 4 0 5 -4 2 -10 -3 -5 -1 -10 6 -10 7
0 9 9 5 23 -3 12 -6 32 -6 45 0 12 -3 22 -7 22 -5 0 -8 -16 -8 -35z"/>
<path d="M1940 4337 c0 -3 15 -14 32 -25 32 -20 48 -16 48 13 0 6 -5 3 -10 -5
-8 -13 -13 -13 -40 3 -16 10 -30 16 -30 14z"/>
<path d="M2274 4318 c-5 -8 -2 -9 11 -4 10 4 21 2 25 -4 5 -7 11 -6 20 5 11
13 8 15 -18 15 -17 0 -34 -5 -38 -12z"/>
<path d="M2340 4310 c-12 -8 -12 -10 3 -16 10 -3 21 -4 24 0 4 3 0 6 -8 6 -11
0 -11 2 1 10 8 5 11 10 5 10 -5 0 -17 -4 -25 -10z"/>
<path d="M4767 4313 c-14 -13 -6 -45 12 -50 28 -7 34 -40 7 -46 -11 -2 -29 -8
-40 -12 -14 -6 -18 -5 -14 6 3 8 18 17 34 20 l29 7 -33 1 c-26 1 -35 -4 -39
-19 -3 -11 -14 -20 -24 -20 -21 0 -26 -25 -8 -36 8 -4 8 -9 1 -13 -8 -4 -8
-11 -1 -21 8 -11 12 -12 16 -2 10 25 21 11 18 -25 -1 -21 0 -26 2 -10 2 15 8
25 12 22 5 -2 8 10 6 28 -1 17 5 40 13 50 17 20 57 24 46 5 -5 -9 -2 -8 10 1
12 10 14 17 6 25 -16 16 -12 54 10 76 15 15 16 20 6 20 -8 0 -17 -6 -20 -12
-5 -10 -7 -10 -12 0 -6 13 -27 16 -37 5z m-33 -149 c6 -15 4 -15 -11 -3 -10 7
-20 15 -22 16 -2 2 3 3 11 3 9 0 19 -7 22 -16z"/>
<path d="M4876 4299 c18 -20 29 -25 19 -9 -8 13 1 13 27 -1 15 -8 19 -8 14 0
-7 11 6 15 34 11 8 -1 12 1 8 6 -4 4 -33 8 -63 9 -54 3 -56 2 -39 -16z"/>
<path d="M1939 4284 c-12 -15 -11 -16 9 -10 13 5 22 3 22 -3 0 -6 -5 -11 -12
-11 -6 0 -8 -3 -5 -6 4 -4 13 -1 22 6 12 10 13 16 4 26 -15 18 -24 18 -40 -2z"/>
<path d="M3382 4280 c0 -14 2 -19 5 -12 2 6 2 18 0 25 -3 6 -5 1 -5 -13z"/>
<path d="M3398 4270 c-2 -16 -1 -27 3 -25 11 7 18 44 9 50 -4 3 -10 -8 -12
-25z"/>
<path d="M4112 4284 c-12 -8 -26 -13 -31 -10 -5 3 -11 -3 -14 -14 -3 -11 -1
-17 4 -14 5 3 12 -2 15 -10 5 -14 10 -13 35 5 28 20 37 43 21 53 -5 3 -18 -2
-30 -10z"/>
<path d="M4850 4280 c-8 -5 -11 -12 -7 -16 4 -4 13 -2 19 4 15 15 7 24 -12 12z"/>
<path d="M2928 4263 c6 -2 18 -2 25 0 6 3 1 5 -13 5 -14 0 -19 -2 -12 -5z"/>
<path d="M2270 4250 c8 -5 20 -10 25 -10 6 0 3 5 -5 10 -8 5 -19 10 -25 10 -5
0 -3 -5 5 -10z"/>
<path d="M3023 4244 c-15 -16 -16 -24 -4 -24 8 0 24 30 19 35 -2 2 -9 -3 -15
-11z"/>
<path d="M2625 4240 c-3 -6 1 -7 9 -4 18 7 21 14 7 14 -6 0 -13 -4 -16 -10z"/>
<path d="M2333 4213 c-24 -9 -13 -20 17 -15 16 2 27 8 24 13 -6 10 -21 11 -41
2z"/>
<path d="M2800 4210 c0 -5 5 -10 11 -10 5 0 7 5 4 10 -3 6 -8 10 -11 10 -2 0
-4 -4 -4 -10z"/>
<path d="M2746 4201 c-12 -5 -15 -10 -9 -14 6 -4 16 0 23 8 14 17 13 17 -14 6z"/>
<path d="M2913 4203 c9 -2 25 -2 35 0 9 3 1 5 -18 5 -19 0 -27 -2 -17 -5z"/>
<path d="M2978 4203 c7 -3 16 -2 19 1 4 3 -2 6 -13 5 -11 0 -14 -3 -6 -6z"/>
<path d="M3016 4195 c-12 -10 -40 -12 -90 -10 l-71 4 69 -9 c38 -5 81 -11 95
-14 14 -3 20 -3 13 0 -10 5 -10 9 -1 20 16 20 8 25 -15 9z"/>
<path d="M4047 4203 c-5 -7 -3 -22 4 -34 10 -20 12 -21 21 -5 5 9 7 22 4 29
-2 7 -5 3 -6 -8 -2 -17 -3 -16 -9 5 -5 17 -9 21 -14 13z"/>
<path d="M2367 4189 c-57 -9 -59 -22 -2 -15 l50 6 -50 -18 c-27 -9 -51 -14
-53 -10 -2 5 -8 8 -14 8 -6 0 -3 -9 7 -20 10 -11 23 -20 29 -20 6 0 5 4 -3 9
-11 7 -3 12 28 21 23 6 49 14 58 17 12 5 14 3 8 -7 -5 -9 -4 -11 3 -6 15 9 15
9 -5 26 -13 11 -29 14 -56 9z"/>
<path d="M4139 4183 c-11 -12 -11 -17 -2 -20 20 -7 27 -4 29 12 3 22 -12 27
-27 8z"/>
<path d="M4763 4175 c-9 -25 4 -29 17 -6 7 15 7 21 0 21 -6 0 -13 -7 -17 -15z"/>
<path d="M3442 4160 c0 -14 2 -19 5 -12 2 6 2 18 0 25 -3 6 -5 1 -5 -13z"/>
<path d="M4025 4170 c-3 -5 -1 -10 4 -10 6 0 11 5 11 10 0 6 -2 10 -4 10 -3 0
-8 -4 -11 -10z"/>
<path d="M2980 4141 c0 -12 5 -21 10 -21 6 0 10 6 10 14 0 8 -4 18 -10 21 -5
3 -10 -3 -10 -14z"/>
<path d="M3471 4144 c0 -11 3 -14 6 -6 3 7 2 16 -1 19 -3 4 -6 -2 -5 -13z"/>
<path d="M3963 4132 c-10 -17 -27 -33 -38 -35 -17 -4 -16 -4 4 -6 20 -1 21 -3
11 -16 -9 -10 -9 -15 -1 -15 6 0 11 3 11 8 0 4 10 12 22 17 13 6 24 19 26 30
3 18 2 18 -13 -2 -9 -13 -21 -23 -26 -23 -6 0 -1 14 11 31 12 16 20 33 16 36
-3 3 -13 -8 -23 -25z"/>
<path d="M2358 4133 c7 -3 16 -2 19 1 4 3 -2 6 -13 5 -11 0 -14 -3 -6 -6z"/>
<path d="M2518 4123 c7 -3 16 -2 19 1 4 3 -2 6 -13 5 -11 0 -14 -3 -6 -6z"/>
<path d="M3447 4123 c-4 -3 2 -12 13 -20 12 -8 20 -25 20 -42 0 -31 16 -51 42
-51 20 0 24 16 6 23 -7 2 -10 8 -5 12 4 5 13 3 19 -3 7 -7 19 -12 27 -12 10 0
7 6 -8 19 -13 11 -20 24 -17 29 3 4 -7 8 -22 7 -15 -2 -20 0 -10 2 20 5 31 30
17 38 -5 4 -8 1 -7 -6 4 -20 -31 -23 -51 -5 -10 9 -21 13 -24 9z m60 -75 c-3
-8 -6 -5 -6 6 -1 11 2 17 5 13 3 -3 4 -12 1 -19z"/>
<path d="M2686 4101 c-4 -5 3 -7 14 -4 23 6 26 13 6 13 -8 0 -17 -4 -20 -9z"/>
<path d="M4642 4075 c0 -16 2 -22 5 -12 2 9 2 23 0 30 -3 6 -5 -1 -5 -18z"/>
<path d="M2540 4080 c0 -5 5 -10 10 -10 6 0 10 5 10 10 0 6 -4 10 -10 10 -5 0
-10 -4 -10 -10z"/>
<path d="M2578 4083 c7 -3 16 -2 19 1 4 3 -2 6 -13 5 -11 0 -14 -3 -6 -6z"/>
<path d="M2630 4080 c0 -5 7 -10 15 -10 8 0 15 5 15 10 0 6 -7 10 -15 10 -8 0
-15 -4 -15 -10z"/>
<path d="M2708 4078 c8 -8 18 -8 34 -1 21 9 20 10 -11 11 -25 0 -31 -2 -23
-10z"/>
<path d="M2816 4075 c-17 -13 -18 -15 -3 -15 9 0 17 4 17 9 0 5 8 12 18 14 12
3 13 5 2 6 -8 0 -24 -6 -34 -14z"/>
<path d="M4661 4064 c0 -11 3 -14 6 -6 3 7 2 16 -1 19 -3 4 -6 -2 -5 -13z"/>
<path d="M2840 4054 c-20 -11 -21 -14 -7 -14 10 0 25 7 33 15 19 18 8 18 -26
-1z"/>
<path d="M3875 4060 c-3 -5 -2 -10 4 -10 5 0 13 5 16 10 3 6 2 10 -4 10 -5 0
-13 -4 -16 -10z"/>
<path d="M2733 4053 c9 -2 23 -2 30 0 6 3 -1 5 -18 5 -16 0 -22 -2 -12 -5z"/>
<path d="M2378 4043 c6 -3 12 -9 12 -14 0 -6 -4 -8 -9 -4 -16 9 -20 -9 -5 -23
12 -11 14 -10 14 5 0 14 2 15 9 4 6 -9 11 -10 15 -2 4 6 2 11 -4 11 -7 0 -10
6 -7 13 3 8 -3 13 -17 14 -11 0 -15 -1 -8 -4z"/>
<path d="M3827 4043 c-32 -8 -15 -35 23 -38 l35 -2 -29 12 c-27 11 -28 13 -10
23 19 12 13 13 -19 5z"/>
<path d="M2428 4033 c7 -3 16 -2 19 1 4 3 -2 6 -13 5 -11 0 -14 -3 -6 -6z"/>
<path d="M3590 4029 c0 -5 4 -8 9 -4 5 3 13 1 16 -5 4 -6 3 -9 -2 -8 -18 5
-74 -12 -68 -22 3 -5 2 -10 -4 -10 -5 0 -12 6 -14 13 -3 7 -6 5 -6 -5 -1 -13
7 -18 24 -18 14 0 24 5 23 12 -2 6 19 17 47 23 28 7 40 13 28 14 -12 0 -25 6
-28 11 -8 13 -25 13 -25 -1z"/>
<path d="M3875 4030 c3 -5 11 -10 16 -10 6 0 7 5 4 10 -3 6 -11 10 -16 10 -6
0 -7 -4 -4 -10z"/>
<path d="M4645 4029 c-4 -6 -5 -12 -2 -15 2 -3 7 2 10 11 7 17 1 20 -8 4z"/>
<path d="M2440 4010 c0 -9 70 -23 77 -16 7 6 -10 12 -49 19 -16 2 -28 1 -28
-3z"/>
<path d="M3750 4009 c0 -7 -10 -9 -29 -6 -20 4 -31 2 -35 -8 -7 -19 3 -24 41
-18 32 5 51 27 33 38 -6 4 -10 1 -10 -6z"/>
<path d="M3943 4003 c-13 -8 -23 -20 -23 -25 0 -5 10 -3 23 4 12 7 30 11 40 9
10 -1 17 4 17 13 0 20 -28 20 -57 -1z"/>
<path d="M2605 4000 c3 -5 -6 -12 -20 -16 -26 -6 -25 -24 1 -24 8 0 13 4 10 9
-3 5 4 11 15 14 20 5 18 27 -2 27 -6 0 -7 -4 -4 -10z"/>
<path d="M4725 3957 c1 -26 5 -51 9 -54 11 -12 24 17 18 40 -5 20 -6 20 -13 1
-5 -14 -8 -10 -12 21 -3 33 -4 32 -2 -8z"/>
<path d="M4050 3990 c-12 -8 -10 -10 10 -11 19 -1 17 -3 -10 -8 l-35 -7 33 -5
c22 -4 39 -1 48 8 7 8 16 14 19 13 19 -1 25 1 25 10 0 13 -70 13 -90 0z"/>
<path d="M4363 3986 c2 -5 20 -11 40 -11 20 -1 34 2 31 6 -2 4 6 9 18 11 13 2
-3 4 -35 4 -37 1 -56 -3 -54 -10z"/>
<path d="M4490 3989 c0 -5 5 -7 10 -4 6 3 10 8 10 11 0 2 -4 4 -10 4 -5 0 -10
-5 -10 -11z"/>
<path d="M4525 3990 c3 -5 13 -10 22 -10 13 0 13 -3 3 -15 -9 -10 -9 -15 -1
-15 6 0 11 5 11 10 0 6 8 10 18 10 11 0 8 5 -12 15 -33 17 -50 19 -41 5z"/>
<path d="M4595 3990 c4 -6 11 -8 16 -5 14 9 11 15 -7 15 -8 0 -12 -5 -9 -10z"/>
<path d="M2648 3983 c7 -3 16 -2 19 1 4 3 -2 6 -13 5 -11 0 -14 -3 -6 -6z"/>
<path d="M3978 3983 c-18 -3 -28 -11 -28 -21 0 -12 3 -13 12 -4 7 7 20 12 29
12 10 0 21 5 24 10 3 6 3 9 -2 9 -4 -1 -20 -4 -35 -6z"/>
<path d="M2433 3965 c-8 -24 -1 -26 61 -19 59 7 72 18 34 28 -43 11 -88 7 -95
-9z"/>
<path d="M4170 3969 c0 -11 33 -16 93 -12 51 3 57 1 57 -17 0 -12 -7 -20 -17
-21 -12 0 -13 -2 -5 -6 7 -3 22 3 33 13 18 16 18 18 3 36 -14 15 -30 18 -91
15 -40 -1 -73 -5 -73 -8z"/>
<path d="M3593 3963 c-7 -3 -13 -12 -13 -21 0 -15 2 -15 11 -2 9 13 10 12 5
-2 -3 -10 -9 -25 -13 -35 -5 -13 -2 -15 18 -9 13 4 47 9 74 10 28 2 59 6 70
10 11 3 7 -1 -10 -9 l-30 -16 28 4 c20 3 27 1 23 -8 -3 -8 2 -11 15 -8 22 6
22 8 9 34 -9 16 -18 18 -51 14 -23 -3 -44 -7 -48 -10 -4 -2 -7 6 -6 18 2 27
-15 40 -32 25 -8 -6 -13 -6 -13 -1 0 10 -16 13 -37 6z"/>
<path d="M4458 3963 c7 -3 16 -2 19 1 4 3 -2 6 -13 5 -11 0 -14 -3 -6 -6z"/>
<path d="M4629 3951 c-19 -21 -33 -55 -19 -46 6 3 20 -1 32 -9 12 -9 27 -16
33 -16 5 0 -2 8 -17 18 -25 17 -27 20 -13 38 26 35 14 47 -16 15z"/>
<path d="M3800 3950 c0 -5 7 -10 16 -10 8 0 12 5 9 10 -3 6 -10 10 -16 10 -5
0 -9 -4 -9 -10z"/>
<path d="M3925 3914 l0 -44 14 30 c13 27 13 32 0 45 -12 12 -14 8 -14 -31z"/>
<path d="M3970 3940 c0 -5 7 -7 15 -4 8 4 15 8 15 10 0 2 -7 4 -15 4 -8 0 -15
-4 -15 -10z"/>
<path d="M4018 3943 c7 -3 16 -2 19 1 4 3 -2 6 -13 5 -11 0 -14 -3 -6 -6z"/>
<path d="M4058 3933 c7 -3 16 -2 19 1 4 3 -2 6 -13 5 -11 0 -14 -3 -6 -6z"/>
<path d="M4129 3911 c11 -7 11 -9 0 -14 -8 -3 1 -3 19 0 19 3 43 0 56 -7 25
-13 66 0 66 20 0 16 -17 11 -24 -6 -4 -11 -10 -13 -19 -7 -6 6 -34 13 -62 17
-30 3 -44 2 -36 -3z"/>
<path d="M4673 3913 c9 -2 17 -9 17 -14 0 -13 17 -11 23 4 3 8 -6 12 -27 13
-17 1 -23 -1 -13 -3z"/>
<path d="M4325 3900 c-3 -6 1 -7 9 -4 18 7 21 14 7 14 -6 0 -13 -4 -16 -10z"/>
<path d="M3624 3892 c-10 -6 -27 -42 -20 -42 1 0 12 11 24 25 21 24 19 33 -4
17z"/>
<path d="M4170 3880 c0 -5 5 -10 11 -10 5 0 7 5 4 10 -3 6 -8 10 -11 10 -2 0
-4 -4 -4 -10z"/>
<path d="M4707 3863 c-6 -16 -16 -32 -22 -36 -6 -5 -3 -7 6 -4 9 3 22 0 29 -6
10 -9 11 -9 6 0 -4 8 5 13 26 15 28 3 33 6 30 27 -3 32 -8 36 -27 21 -10 -8
-15 -9 -15 -1 0 21 -20 11 -33 -16z m14 -26 c-8 -8 -11 -7 -11 4 0 20 13 34
18 19 3 -7 -1 -17 -7 -23z m54 13 c3 -5 1 -10 -4 -10 -6 0 -11 5 -11 10 0 6 2
10 4 10 3 0 8 -4 11 -10z"/>
<path d="M2860 3870 c0 -5 5 -10 10 -10 6 0 10 5 10 10 0 6 -4 10 -10 10 -5 0
-10 -4 -10 -10z"/>
<path d="M3901 3864 c0 -11 3 -14 6 -6 3 7 2 16 -1 19 -3 4 -6 -2 -5 -13z"/>
<path d="M3544 3833 c1 -15 5 -26 10 -25 5 2 12 -2 17 -9 6 -10 10 -9 15 5 8
22 -6 50 -28 54 -11 2 -15 -5 -14 -25z m26 -3 c0 -5 -2 -10 -4 -10 -3 0 -8 5
-11 10 -3 6 -1 10 4 10 6 0 11 -4 11 -10z"/>
<path d="M3810 3855 c0 -3 10 -10 23 -16 19 -8 18 -9 -8 -4 -22 4 -26 3 -15
-5 20 -13 57 -13 65 1 4 6 5 12 4 13 -8 7 -69 17 -69 11z"/>
<path d="M4800 3840 c-8 -16 -7 -26 7 -45 10 -13 24 -25 31 -25 7 0 10 -5 7
-10 -3 -6 2 -18 11 -28 17 -16 17 -16 12 5 -7 25 6 40 18 22 4 -8 3 -9 -4 -5
-18 11 -14 0 5 -15 14 -12 16 -12 8 0 -6 11 -4 13 11 8 15 -5 14 -3 -3 9 -34
24 -28 38 8 17 l31 -18 -43 -37 -42 -36 41 -43 c39 -42 41 -43 60 -26 11 10
25 17 33 15 7 -2 14 3 15 10 3 26 5 27 14 12 7 -11 9 -9 8 10 -1 14 -10 35
-21 47 -11 12 -16 27 -12 34 6 8 4 10 -5 4 -7 -4 -15 -4 -19 1 -14 19 -90 54
-96 44 -10 -16 -65 17 -65 39 0 11 6 22 13 24 9 4 9 6 0 6 -7 1 -17 -8 -23
-19z m165 -140 c-3 -10 -1 -21 5 -25 8 -5 6 -13 -6 -26 -22 -25 -30 -24 -50 6
-13 20 -14 28 -4 40 7 8 17 15 23 15 5 0 2 -9 -7 -19 -19 -21 -8 -35 18 -25
10 4 13 11 8 18 -7 10 -8 20 -3 42 0 3 6 2 11 -1 6 -4 8 -15 5 -25z m29 -16
c5 -14 4 -15 -9 -4 -17 14 -19 20 -6 20 5 0 12 -7 15 -16z m-54 -4 c0 -5 -5
-10 -11 -10 -5 0 -7 5 -4 10 3 6 8 10 11 10 2 0 4 -4 4 -10z"/>
<path d="M3040 3830 c0 -12 47 -14 54 -2 2 4 -9 9 -25 10 -16 1 -29 -2 -29 -8z"/>
<path d="M3605 3829 c-4 -6 -5 -12 -2 -15 2 -3 7 2 10 11 7 17 1 20 -8 4z"/>
<path d="M4845 3820 c3 -5 11 -10 16 -10 6 0 7 5 4 10 -3 6 -11 10 -16 10 -6
0 -7 -4 -4 -10z"/>
<path d="M2860 3799 c0 -19 -2 -21 -10 -9 -7 12 -10 12 -10 1 0 -7 -6 -11 -15
-8 -8 4 -17 1 -21 -5 -4 -7 -3 -8 4 -4 7 4 12 1 12 -8 0 -8 -6 -19 -12 -23
-16 -10 -48 -70 -48 -88 0 -7 -6 -15 -12 -18 -7 -2 -10 -8 -6 -12 12 -13 38
16 38 42 0 20 3 23 13 15 8 -7 18 -7 27 -2 13 9 13 10 0 11 -8 1 -18 1 -22 0
-16 -2 -7 18 17 40 13 13 25 31 25 39 0 13 2 13 9 1 8 -12 11 -9 17 12 3 16 4
31 0 34 -3 4 -6 -5 -6 -18z"/>
<path d="M4750 3810 c0 -5 5 -10 10 -10 6 0 10 5 10 10 0 6 -4 10 -10 10 -5 0
-10 -4 -10 -10z"/>
<path d="M3173 3803 c-20 -8 -15 -23 7 -23 11 0 20 7 20 15 0 15 -6 17 -27 8z"/>
<path d="M3808 3803 c12 -2 30 -2 40 0 9 3 -1 5 -23 4 -22 0 -30 -2 -17 -4z"/>
<path d="M3523 3773 c1 -17 5 -29 9 -27 3 2 8 1 11 -3 2 -5 3 -3 1 3 -1 6 3
17 9 23 8 8 7 11 -5 11 -9 0 -19 6 -21 13 -3 6 -4 -2 -4 -20z"/>
<path d="M4740 3780 c0 -5 5 -10 11 -10 5 0 7 5 4 10 -3 6 -8 10 -11 10 -2 0
-4 -4 -4 -10z"/>
<path d="M4777 3782 c-9 -13 29 -70 41 -63 4 2 13 -7 20 -20 13 -24 13 -23 7
6 -4 16 -11 33 -17 36 -5 3 -9 10 -8 15 1 5 -4 10 -11 13 -7 2 -9 -1 -5 -8 4
-6 3 -11 -3 -11 -5 0 -11 10 -13 23 -2 15 -5 18 -11 9z"/>
<path d="M2880 3746 c7 -7 13 -7 20 0 6 6 3 10 -10 10 -13 0 -16 -4 -10 -10z"/>
<path d="M3047 3747 c10 -17 54 -27 71 -17 11 6 12 9 4 10 -7 0 -11 3 -8 8 2
4 -13 7 -34 7 -21 0 -36 -3 -33 -8z m53 -7 c8 -5 11 -10 5 -10 -5 0 -17 5 -25
10 -8 5 -10 10 -5 10 6 0 17 -5 25 -10z"/>
<path d="M2844 3739 c-3 -6 -2 -15 3 -20 5 -5 9 -1 9 11 0 23 -2 24 -12 9z"/>
<path d="M2988 3743 c7 -3 16 -2 19 1 4 3 -2 6 -13 5 -11 0 -14 -3 -6 -6z"/>
<path d="M5015 3730 c-7 -12 12 -40 26 -40 5 0 9 5 9 10 0 6 -5 9 -11 8 -6 -2
-14 3 -17 11 -3 9 0 11 8 6 9 -5 11 -4 6 3 -9 15 -13 15 -21 2z"/>
<path d="M2810 3710 c0 -5 5 -10 10 -10 6 0 10 5 10 10 0 6 -4 10 -10 10 -5 0
-10 -4 -10 -10z"/>
<path d="M3165 3669 c-4 -5 2 -6 11 -2 10 4 15 2 11 -4 -3 -5 0 -10 7 -10 7 0
13 5 13 12 0 13 -34 17 -42 4z"/>
<path d="M3232 3671 c-10 -6 -5 -11 19 -20 17 -6 41 -11 53 -12 20 0 20 -1 2
-8 -14 -5 -16 -10 -7 -15 6 -4 18 -2 26 4 8 6 19 9 25 5 16 -10 12 11 -5 25
-8 7 -28 10 -45 8 -36 -5 -38 -1 -7 13 18 8 18 9 2 5 -11 -2 -29 -7 -39 -12
-14 -5 -17 -4 -12 4 8 14 6 15 -12 3z"/>
<path d="M3373 3672 c-13 -8 -6 -52 8 -52 5 0 9 4 9 9 0 4 14 12 32 17 17 5
33 16 35 24 4 13 3 13 -6 0 -10 -13 -11 -13 -11 0 0 9 -3 11 -8 4 -10 -15 -40
-25 -47 -14 -3 4 1 11 7 13 7 3 9 6 3 6 -5 0 -15 -3 -22 -7z"/>
<path d="M2730 3659 c0 -5 5 -7 10 -4 6 3 10 8 10 11 0 2 -4 4 -10 4 -5 0 -10
-5 -10 -11z"/>
<path d="M3245 3630 c3 -5 11 -10 16 -10 6 0 7 5 4 10 -3 6 -11 10 -16 10 -6
0 -7 -4 -4 -10z"/>
<path d="M3433 3633 c-13 -2 -23 -8 -23 -13 0 -10 38 -1 46 11 3 5 4 8 2 8 -2
-1 -13 -4 -25 -6z"/>
<path d="M3538 3626 c-89 -32 -105 -53 -163 -214 -53 -147 -62 -162 -161 -255
-138 -130 -176 -236 -140 -395 29 -128 20 -185 -43 -281 -32 -48 -36 -62 -36
-116 0 -51 5 -70 30 -110 17 -26 41 -55 55 -64 14 -10 21 -11 16 -3 -4 7 -4
22 -1 33 6 19 8 19 27 -12 34 -59 41 -61 170 -53 99 6 125 4 163 -10 41 -16
45 -21 45 -50 0 -45 -29 -125 -49 -135 -44 -22 -256 -73 -289 -68 -21 2 -96 1
-169 -4 -159 -9 -199 -25 -322 -130 l-81 -70 0 53 c0 29 11 118 25 197 14 79
25 160 25 179 0 21 12 57 30 89 36 64 37 70 5 116 l-24 37 35 62 c54 96 81
126 135 154 60 30 63 54 8 68 -32 8 -44 4 -102 -28 l-66 -37 -6 38 c-3 21 -14
83 -25 138 -62 323 -90 418 -126 432 -34 13 -36 -13 -13 -176 12 -88 20 -163
18 -166 -3 -2 -41 -9 -85 -15 -60 -8 -83 -16 -94 -31 -8 -12 -32 -40 -52 -64
-29 -32 -38 -51 -38 -77 0 -57 29 -206 55 -282 l23 -71 -26 -28 c-26 -27 -26
-28 -10 -72 l17 -44 -85 -253 c-133 -397 -184 -614 -184 -789 0 -155 37 -227
145 -280 59 -29 71 -31 131 -26 117 9 263 101 405 255 37 40 68 72 70 72 2 0
5 -27 7 -60 3 -80 37 -250 66 -336 44 -131 139 -291 156 -264 5 9 0 20 -16 33
-14 11 -23 21 -20 24 2 3 -5 14 -15 24 -26 26 -19 45 15 41 31 -3 36 22 7 38
-27 14 -31 13 -31 -9 0 -34 -17 -32 -34 4 -31 64 -46 118 -40 139 4 17 3 18
-6 6 -10 -12 -11 -11 -7 8 3 12 1 20 -4 16 -14 -8 -10 20 6 42 8 10 15 28 15
40 0 11 5 25 11 31 16 16 15 265 -1 338 -7 33 -14 80 -14 105 -1 51 -20 71
-24 25 -7 -83 -54 -201 -74 -189 -7 4 -8 3 -4 -4 11 -18 -44 -81 -66 -77 -10
2 -16 0 -13 -6 4 -5 12 -6 18 -2 7 4 6 -1 -2 -10 -10 -13 -17 -14 -26 -7 -9 8
-15 8 -20 0 -3 -5 -11 -10 -17 -10 -6 0 -3 10 8 22 10 12 13 18 5 13 -8 -4
-27 -9 -43 -10 -36 -3 -41 -8 -33 -34 9 -29 36 -31 66 -3 33 29 47 13 18 -19
-16 -18 -19 -20 -15 -6 4 11 2 16 -5 12 -6 -4 -8 -13 -5 -21 6 -15 -6 -19 -18
-7 -3 4 -19 7 -34 8 -22 1 -27 -3 -28 -22 -2 -26 11 -31 20 -8 3 8 10 15 16
15 6 0 8 -4 5 -10 -4 -6 1 -7 12 -4 11 4 8 -1 -7 -12 -14 -10 -29 -24 -33 -31
-5 -8 -17 -11 -27 -8 -10 3 -21 1 -25 -4 -4 -7 1 -9 12 -5 11 3 6 -4 -12 -20
-16 -14 -31 -23 -33 -21 -2 2 -20 -8 -39 -21 -43 -29 -124 -54 -172 -54 -86 1
-177 62 -211 142 -19 44 -21 65 -18 171 2 85 7 122 16 125 6 2 12 8 12 13 0 6
-5 7 -11 3 -9 -5 -10 1 -4 22 4 16 11 47 15 69 36 187 123 478 132 440 3 -11
6 -2 6 20 2 46 57 207 64 185 3 -8 4 -6 2 5 -2 11 4 43 13 71 l16 51 28 -16
c16 -9 29 -18 29 -22 0 -3 25 -2 55 1 36 4 55 2 55 -4 0 -7 3 -7 8 0 4 6 17
16 30 23 31 16 28 31 -7 28 -16 -1 -27 -5 -25 -8 8 -13 -58 -18 -79 -7 -12 7
-29 13 -37 14 -8 1 -23 2 -32 3 -10 0 -23 19 -34 46 -16 44 -16 46 2 60 23 18
40 19 50 3 5 -7 2 -9 -8 -5 -9 3 -24 0 -34 -7 -26 -20 1 -30 29 -11 13 8 26
12 30 9 9 -9 116 -10 110 -1 -2 4 5 7 15 7 11 0 36 7 55 15 20 8 43 12 51 9
27 -10 7 -24 -27 -18 -30 4 -31 4 -7 -6 18 -8 31 -8 48 0 18 8 28 7 40 -2 13
-12 14 -10 3 10 -7 12 -16 20 -21 17 -6 -3 -17 -2 -25 3 -14 7 -13 11 5 27 11
10 23 15 28 11 7 -7 8 -11 11 -37 0 -5 5 -8 10 -5 10 6 8 -21 -3 -46 -5 -10
-13 -15 -20 -11 -6 3 -8 3 -4 -1 4 -5 -3 -26 -14 -48 -16 -30 -23 -36 -30 -26
-7 9 -8 8 -4 -5 8 -25 -32 -77 -52 -69 -13 5 -12 7 4 13 17 7 17 8 -4 8 -13 1
-20 5 -17 11 3 6 2 10 -4 10 -5 0 -13 -4 -16 -10 -3 -5 -1 -10 5 -10 6 0 9 -4
5 -10 -3 -5 -12 -7 -20 -3 -17 6 -21 -32 -5 -42 6 -4 8 -11 5 -16 -11 -16 0
-10 18 12 18 20 18 21 -2 14 -15 -4 -21 -2 -21 8 0 17 42 18 47 1 5 -15 -46
-76 -58 -68 -5 3 -8 2 -7 -3 2 -4 -7 -18 -20 -31 -13 -13 -21 -30 -18 -37 2
-7 8 -30 12 -49 3 -20 10 -36 15 -36 14 0 11 32 -6 64 -13 25 -13 27 0 22 8
-3 14 -2 12 3 -3 12 79 92 87 84 10 -10 7 -33 -5 -33 -5 0 -7 5 -3 12 4 7 3 8
-5 4 -9 -6 -8 -14 4 -33 18 -27 9 -48 -15 -33 -10 7 -11 10 -2 10 17 0 15 17
-2 23 -11 4 -13 1 -9 -11 6 -15 5 -16 -13 -2 -12 9 -11 5 5 -13 29 -32 39 -33
57 -9 12 17 9 67 -7 87 -4 6 8 27 27 49 29 33 34 35 34 17 0 -12 -4 -21 -9
-21 -5 0 -7 -10 -3 -22 5 -21 4 -22 -11 -9 -21 17 -22 8 -1 -13 8 -9 12 -21 8
-28 -4 -6 -8 -23 -9 -37 -3 -58 -18 -141 -24 -137 -3 2 -5 -44 -3 -102 6 -189
-34 -380 -97 -468 l-29 -40 38 0 c27 1 36 5 32 14 -4 11 -6 11 -13 0 -7 -10
-9 -10 -9 0 0 7 11 24 24 37 13 13 21 26 18 29 -3 3 1 6 8 6 36 0 86 51 110
111 18 45 21 64 12 67 -14 4 -16 52 -2 52 16 0 11 28 -6 38 -9 5 -18 21 -19
35 -2 15 -10 34 -19 43 -19 19 -12 35 38 83 23 23 40 32 52 27 14 -5 15 -4 5
8 -9 11 -5 18 22 35 40 25 47 26 47 7 0 -7 7 -27 15 -42 9 -17 13 -41 10 -59
-6 -30 -6 -30 8 -6 10 17 16 20 19 10 3 -8 -3 -25 -14 -38 -15 -19 -17 -34
-12 -73 6 -41 4 -48 -11 -48 -14 0 -15 -3 -5 -15 7 -8 18 -15 24 -15 6 0 4 5
-4 11 -13 9 -13 10 0 6 8 -2 14 -11 14 -20 -1 -10 4 -13 13 -10 8 3 19 0 24
-8 6 -9 9 -10 9 -2 0 6 -5 15 -11 19 -8 4 -7 9 2 16 11 8 10 9 -3 5 -23 -8
-34 10 -42 68 -4 37 -3 46 5 35 9 -13 10 -12 5 2 -3 10 -1 20 3 23 10 5 21
-28 21 -62 0 -13 6 -23 14 -23 17 0 15 111 -3 150 -12 26 -10 4 4 -35 7 -20 6
-20 -9 -1 -9 11 -16 26 -16 33 0 8 -11 36 -25 62 -21 42 -22 50 -9 55 9 3 21
3 26 -1 7 -3 8 -1 4 5 -8 14 36 27 59 18 9 -3 13 -2 10 4 -10 16 137 12 158
-4 9 -7 17 -17 17 -21 0 -4 -7 -2 -15 5 -8 7 -16 9 -16 4 -9 -69 -8 -74 9 -73
10 0 12 3 5 6 -19 7 -16 22 5 21 9 0 24 2 32 6 10 4 31 -8 60 -34 25 -23 57
-49 73 -58 15 -9 27 -20 27 -24 0 -4 6 -8 13 -8 14 0 67 -39 53 -40 -5 0 -17
6 -25 14 -14 13 -16 12 -17 -10 -1 -13 2 -24 8 -24 5 0 7 4 4 9 -3 5 9 7 27 6
48 -4 49 -4 42 -15 -4 -6 1 -7 11 -3 10 4 15 2 11 -3 -3 -5 3 -10 12 -10 27 0
4 33 -35 52 -17 8 -41 24 -52 34 -12 11 -25 20 -29 20 -18 1 -65 49 -59 59 4
6 2 9 -7 5 -8 -3 -29 8 -48 24 -19 17 -47 42 -64 56 l-30 25 30 1 c22 0 26 -3
15 -10 -17 -11 -17 -10 37 -40 23 -13 39 -28 36 -33 -3 -6 -1 -7 5 -4 15 10
222 -90 222 -107 0 -8 9 -31 21 -50 11 -19 18 -40 14 -46 -3 -5 -1 -10 4 -10
15 0 13 -11 -5 -35 -12 -16 -16 -17 -23 -6 -12 19 -31 5 -31 -23 0 -29 25 -53
35 -35 6 8 10 7 16 -2 6 -10 9 -6 9 14 0 15 5 27 10 27 6 0 10 -11 10 -24 0
-13 7 -27 16 -30 25 -9 29 -7 12 7 -9 6 -19 25 -22 40 -4 15 -11 25 -16 22 -6
-3 -10 -2 -10 4 0 24 21 20 33 -6 12 -28 34 -65 69 -116 14 -20 17 -32 9 -41
-8 -9 -7 -13 4 -13 8 0 12 5 9 11 -3 6 1 3 8 -8 7 -10 37 -50 66 -90 28 -39
52 -74 52 -77 0 -4 -7 -12 -15 -19 -16 -13 -21 -115 -7 -137 9 -14 82 -20 100
-9 7 4 12 32 12 72 0 39 4 64 11 64 6 0 8 9 4 20 -5 16 -3 19 12 13 17 -7 17
-6 1 10 -10 10 -21 16 -25 15 -11 -4 -11 -32 0 -39 5 -4 5 -9 0 -12 -4 -3 -16
0 -25 7 -15 11 -13 18 22 73 22 33 50 80 64 104 14 24 29 43 34 42 6 -1 7 7 4
19 -3 14 -1 19 6 14 6 -3 14 -1 18 5 5 8 3 9 -6 4 -14 -9 -14 -8 15 52 11 24
27 43 36 43 9 0 20 7 23 16 10 26 7 29 -8 8 -8 -10 -17 -16 -21 -12 -10 9 14
50 26 43 5 -4 9 -3 9 2 0 13 68 31 78 21 6 -6 12 -6 16 1 4 6 2 11 -5 11 -25
0 87 52 119 55 28 3 32 0 32 -20 0 -33 11 -37 40 -15 24 19 24 19 3 13 -19 -4
-23 -1 -23 16 0 22 34 31 43 11 3 -6 4 -5 3 2 -4 21 -36 35 -45 19 -13 -20
-62 -24 -54 -5 8 22 -12 17 -74 -18 -31 -18 -53 -26 -48 -19 4 8 -5 4 -21 -7
-28 -20 -74 -38 -74 -29 0 28 27 68 55 81 18 9 35 16 38 16 2 0 26 10 53 22
27 12 55 21 62 20 6 -2 12 1 12 7 0 5 14 12 30 16 30 7 41 29 18 38 -7 3 7 6
32 6 35 0 41 -2 27 -10 -9 -5 -22 -7 -29 -3 -7 5 -8 3 -3 -5 8 -14 -29 -54
-41 -43 -4 4 -4 1 0 -5 11 -20 32 -15 66 17 18 17 40 30 49 29 9 0 59 -15 111
-32 l95 -32 -1 -37 c0 -20 4 -35 8 -32 16 10 7 -10 -14 -34 -22 -22 -22 -24
-5 -36 18 -14 24 -32 7 -21 -6 4 -9 -4 -7 -17 1 -14 -3 -22 -10 -21 -7 2 -10
-4 -7 -12 4 -8 2 -15 -4 -15 -6 0 -12 5 -14 11 -2 7 -8 7 -15 -3 -9 -11 -5
-13 22 -14 23 0 32 3 28 13 -4 9 0 11 11 7 15 -6 17 0 15 38 -2 29 3 53 14 68
18 25 23 51 10 49 -19 -3 -36 2 -29 8 14 15 52 10 74 -10 24 -22 28 -37 11
-37 -5 0 -7 6 -3 13 4 7 3 8 -2 4 -5 -5 -9 -14 -10 -20 0 -7 -2 -21 -3 -32 -1
-17 -3 -18 -11 -5 -7 12 -10 12 -10 1 0 -8 -6 -11 -17 -7 -10 4 -14 3 -9 -1 4
-4 21 -8 37 -9 23 0 28 3 24 16 -3 10 2 23 10 30 13 11 20 9 40 -10 13 -13 22
-27 18 -33 -3 -6 -1 -7 5 -3 16 10 15 0 -4 -29 -12 -18 -13 -28 -4 -45 6 -11
8 -25 4 -31 -6 -11 23 -49 38 -49 4 0 8 9 8 20 0 11 -5 20 -12 20 -6 0 -8 3
-5 7 4 3 -1 12 -11 20 -9 8 -12 12 -5 9 6 -4 15 -1 19 5 4 7 3 9 -2 6 -6 -3
-16 -2 -24 3 -13 8 -13 12 2 26 14 14 20 15 32 5 9 -8 13 -18 9 -24 -3 -6 -1
-7 5 -3 6 3 16 -3 22 -14 10 -20 20 -31 65 -81 8 -9 15 -23 15 -33 0 -9 5 -14
10 -11 6 3 10 2 10 -4 0 -5 -4 -12 -10 -16 -6 -4 -6 -15 1 -32 7 -19 6 -29 -2
-37 -9 -8 -10 -8 -5 1 9 17 -11 63 -29 63 -25 0 -17 -36 15 -72 17 -18 28 -25
24 -15 -8 21 2 22 22 2 9 -8 23 -15 32 -14 12 0 10 3 -6 9 -26 11 -37 33 -28
57 6 15 13 11 41 -22 33 -39 45 -62 26 -50 -18 11 -23 -16 -6 -35 9 -10 14
-24 10 -29 -3 -6 -1 -11 4 -11 6 0 10 11 9 24 -1 14 -6 24 -11 23 -5 -1 -11 3
-14 10 -2 6 3 10 12 9 20 -3 48 -43 40 -56 -4 -6 -1 -9 7 -8 7 2 12 -5 12 -14
-1 -10 2 -16 6 -13 8 5 50 -45 50 -59 0 -3 21 -33 46 -66 25 -33 43 -64 39
-70 -3 -6 1 -7 9 -4 9 3 16 9 16 11 0 9 -216 317 -299 428 -193 258 -276 337
-393 378 -170 60 -211 69 -273 63 -53 -5 -74 -1 -185 38 -116 40 -125 45 -131
72 -11 48 -10 124 1 124 6 0 43 -18 83 -39 84 -45 125 -54 191 -42 44 8 47 7
43 -10 -6 -23 -3 -23 28 -3 36 24 59 93 51 155 -6 45 -4 53 13 66 12 8 21 23
21 34 0 12 7 19 19 19 18 0 61 43 61 61 0 4 -10 9 -22 11 -34 5 -32 25 4 32
l33 7 -38 14 c-21 7 -40 15 -41 17 -1 1 -14 19 -29 38 -14 19 -31 56 -37 82
-11 41 -9 58 9 126 11 43 21 95 21 114 0 35 3 38 83 84 75 44 126 86 127 107
0 14 -82 -3 -119 -24 -28 -16 -32 -17 -27 -4 77 201 18 420 -113 420 -37 0
-37 0 -54 58 -37 125 -131 185 -312 198 -60 5 -132 13 -158 19 -66 14 -184 12
-229 -4z m628 -478 c41 -80 55 -153 55 -285 0 -109 -3 -132 -30 -210 -71 -212
-115 -286 -220 -375 -120 -102 -237 -138 -323 -100 -85 37 -188 153 -243 274
-28 62 -50 228 -43 340 3 57 9 74 42 122 21 31 44 56 50 56 7 0 23 11 36 25
31 34 100 58 149 53 23 -2 41 0 41 5 0 5 -29 7 -65 5 -37 -2 -59 0 -52 5 31
21 109 50 185 68 46 10 96 26 112 34 43 22 47 18 14 -16 -48 -51 -150 -120
-232 -155 -85 -37 -82 -42 12 -18 149 38 302 137 376 242 l35 50 38 -36 c21
-21 50 -58 63 -84z m-1647 6 c11 -14 25 -51 32 -82 6 -31 27 -124 45 -207 18
-82 37 -180 42 -218 l9 -67 -34 -26 c-35 -26 -71 -84 -53 -84 5 0 10 6 10 13
0 24 54 65 143 110 69 35 94 43 115 38 15 -4 26 -11 25 -15 -1 -4 -26 -22 -55
-39 -41 -25 -62 -47 -95 -102 -23 -38 -52 -87 -65 -108 -33 -55 -113 -92 -200
-92 -56 0 -70 4 -91 23 -34 32 -73 170 -92 330 -7 51 -6 54 32 96 21 24 45 53
53 64 11 15 30 22 70 26 30 3 68 8 83 12 20 5 34 1 49 -12 27 -24 57 -91 58
-126 0 -43 -39 -138 -57 -138 -12 0 -14 7 -8 33 20 96 19 102 -20 146 -21 23
-40 39 -43 37 -3 -3 12 -24 32 -46 20 -22 36 -45 36 -52 0 -31 -34 -128 -45
-128 -16 0 -35 44 -35 80 0 22 -11 41 -40 70 -22 22 -45 40 -50 40 -6 0 10
-20 35 -44 44 -41 46 -46 39 -82 -3 -22 -11 -48 -17 -58 -9 -19 -10 -19 -23
-1 -8 10 -14 33 -14 50 0 28 -5 34 -40 48 -22 8 -40 12 -40 7 0 -5 16 -14 35
-20 30 -10 35 -16 35 -41 0 -62 38 -91 61 -47 l12 22 15 -22 c15 -22 42 -30
42 -12 0 6 13 10 29 10 26 0 32 6 49 53 11 28 22 62 26 73 9 31 -28 125 -64
159 -20 20 -30 39 -30 59 0 27 -14 122 -35 254 -9 49 3 55 34 16z m785 -196
c22 -76 47 -225 44 -267 l-3 -54 -33 28 c-18 15 -39 40 -47 56 -29 55 -12 249
22 249 7 0 15 -6 17 -12z m1206 -17 c0 -13 -26 -32 -33 -24 -14 13 -6 33 13
33 11 0 20 -4 20 -9z m-57 -26 c4 -10 -14 -26 -56 -51 -34 -21 -73 -45 -87
-53 l-25 -16 22 30 c12 16 48 46 80 67 32 20 59 37 59 37 1 1 4 -6 7 -14z
m-142 -237 c-12 -45 -28 -89 -36 -99 -20 -21 -102 -65 -109 -58 -4 3 6 39 21
80 24 67 51 108 115 179 l23 25 3 -23 c2 -12 -6 -59 -17 -104z m-1976 -428
c-3 -5 -12 -10 -18 -10 -7 0 -6 4 3 10 19 12 23 12 15 0z m1294 -89 c68 -48
111 -56 167 -32 24 11 58 30 74 41 l30 21 0 -50 c0 -27 5 -85 11 -128 8 -65
14 -81 36 -97 30 -23 53 -73 53 -114 0 -27 -3 -30 -46 -36 -26 -3 -65 -6 -88
-6 -45 0 -107 -27 -114 -49 -3 -8 7 -5 25 8 22 17 50 24 122 29 50 4 93 6 95
4 2 -2 2 -11 -1 -21 -3 -12 -35 -27 -101 -49 -150 -49 -184 -53 -267 -32 -105
27 -205 74 -205 98 0 17 5 18 53 11 28 -4 73 -8 98 -8 32 -1 58 -9 84 -26 20
-14 35 -20 33 -13 -9 29 -90 58 -163 58 -38 0 -80 3 -91 6 -45 12 -34 138 14
159 38 17 64 104 66 222 l1 102 35 -33 c19 -19 55 -48 79 -65z m-225 -258 c-8
-16 -13 -48 -12 -73 1 -25 -2 -45 -7 -45 -6 1 -37 4 -70 9 -65 8 -180 60 -155
70 35 13 226 64 242 65 15 1 15 -2 2 -26z m826 -84 c0 -19 -188 -56 -212 -42
-5 2 -8 18 -8 34 0 16 -6 45 -14 63 l-14 34 124 -41 c68 -23 124 -44 124 -48z
m-1160 -1 c0 -9 3 -8 10 2 5 8 12 11 17 7 10 -11 -17 -27 -34 -20 -15 6 -18
23 -3 23 6 0 10 -6 10 -12z m332 -62 c15 -22 7 -25 -29 -10 -57 24 -65 37 -18
28 22 -4 43 -12 47 -18z m698 9 c0 -5 -24 -16 -67 -29 -17 -5 -23 -3 -23 8 0
9 12 16 33 19 17 2 38 5 45 5 6 1 12 0 12 -3z m505 -35 c8 -13 -5 -13 -25 0
-13 8 -13 10 2 10 9 0 20 -4 23 -10z m-635 -71 c-11 -38 -15 -42 -38 -44 -9
-1 -35 -7 -57 -13 -43 -12 -120 -21 -223 -26 -62 -3 -82 -10 -69 -22 9 -10 99
-7 193 5 44 5 91 8 105 5 19 -5 21 -4 9 6 -13 9 -12 10 5 8 11 -1 26 1 34 6
20 13 7 -23 -47 -129 -64 -125 -113 -205 -124 -205 -6 0 -8 7 -4 15 4 13 2 14
-14 5 -11 -6 -20 -13 -20 -16 0 -3 4 -3 9 0 5 3 14 0 20 -8 9 -10 7 -17 -6
-27 -15 -12 -16 -12 -10 3 3 10 2 17 -3 15 -10 -2 -41 39 -136 182 -30 46 -53
86 -50 88 3 3 15 -11 27 -31 26 -44 36 -48 14 -6 -9 17 -14 34 -11 38 2 4 -8
8 -22 9 -15 0 -28 5 -29 10 -2 4 -19 40 -37 78 -18 39 -32 71 -31 73 2 2 22
-2 45 -9 38 -12 40 -14 24 -26 -14 -10 -19 -10 -26 0 -6 9 -8 8 -8 -4 0 -9 9
-19 21 -22 12 -3 18 -10 14 -16 -3 -6 -2 -11 4 -11 5 0 13 5 16 10 4 6 15 8
26 5 10 -4 19 -2 19 3 0 14 -25 22 -49 15 -26 -7 -27 3 -3 16 13 7 34 5 68 -5
47 -15 171 -25 177 -14 1 3 45 20 97 37 52 18 96 32 97 32 1 1 -2 -13 -7 -30z
m-517 -144 c-3 -9 -8 -14 -10 -11 -3 3 -2 9 2 15 9 16 15 13 8 -4z m1307 -45
c0 -5 -2 -10 -4 -10 -3 0 -8 5 -11 10 -3 6 -1 10 4 10 6 0 11 -4 11 -10z m151
-112 c-11 -10 -13 -10 -7 0 4 6 2 12 -4 12 -6 0 -8 5 -4 11 4 8 9 8 17 0 8 -8
7 -14 -2 -23z m-1131 -248 l0 -50 -40 0 -40 0 0 50 0 50 40 0 40 0 0 -50z"/>
<path d="M3940 3010 c0 -5 13 -10 28 -10 39 0 114 -50 142 -94 12 -21 24 -35
27 -32 7 7 -40 73 -70 96 -24 19 -98 50 -118 50 -5 0 -9 -4 -9 -10z"/>
<path d="M3549 2864 c-19 -52 17 -89 41 -43 15 26 5 69 -15 69 -9 0 -20 -12
-26 -26z"/>
<path d="M3984 2805 c-14 -21 -15 -31 -5 -51 12 -28 28 -24 41 11 9 25 3 65
-11 65 -5 0 -16 -11 -25 -25z"/>
<path d="M3741 2769 c0 -14 -14 -43 -31 -64 -16 -21 -30 -44 -30 -51 0 -18 36
-54 53 -54 6 0 0 10 -15 21 -16 11 -28 25 -28 30 0 6 14 27 31 48 22 29 29 46
26 67 -4 28 -4 28 -6 3z"/>
<path d="M3579 2522 c8 -6 21 -34 28 -63 15 -59 40 -91 83 -109 45 -19 90 2
153 70 l55 60 -67 0 c-37 0 -101 9 -142 20 -124 32 -125 33 -110 22z m108 -37
c31 -8 84 -15 117 -15 40 0 57 -3 50 -10 -5 -5 -22 -11 -36 -12 -21 -2 -24 -5
-16 -15 14 -17 -11 -46 -53 -63 -40 -17 -83 2 -103 45 -19 40 -20 58 -3 50 6
-4 1 3 -13 14 -30 25 -19 26 57 6z"/>
<path d="M3696 2447 c16 -12 29 -14 50 -7 l29 8 -32 1 c-17 1 -40 4 -50 7 -15
5 -14 4 3 -9z"/>
<path d="M4419 2893 c-13 -17 -13 -17 6 -3 11 8 22 16 24 17 2 2 0 3 -6 3 -6
0 -17 -8 -24 -17z"/>
<path d="M4340 2849 c-17 -13 -18 -17 -5 -10 33 17 51 31 40 31 -5 0 -21 -10
-35 -21z"/>
<path d="M3889 1642 c10 -3 7 -9 -10 -19 -16 -10 -17 -12 -4 -7 11 4 31 7 45
7 14 0 19 2 12 4 -6 3 -10 8 -8 11 2 4 -8 8 -22 8 -15 1 -21 -1 -13 -4z"/>
<path d="M3805 1610 c-16 -7 -14 -8 12 -7 17 1 29 5 26 10 -5 9 -12 8 -38 -3z"/>
<path d="M3608 1593 c7 -3 16 -2 19 1 4 3 -2 6 -13 5 -11 0 -14 -3 -6 -6z"/>
<path d="M3832 1551 c-11 -6 -10 -10 4 -15 9 -3 19 -4 22 -1 3 3 0 5 -7 5 -7
0 -9 5 -6 10 7 12 4 12 -13 1z"/>
<path d="M3878 1543 c6 -2 18 -2 25 0 6 3 1 5 -13 5 -14 0 -19 -2 -12 -5z"/>
<path d="M3686 1524 c7 -3 9 -14 7 -25 -5 -19 -2 -20 72 -18 69 2 79 0 85 -16
6 -17 7 -17 12 3 4 12 3 20 -1 18 -4 -3 -15 6 -25 20 -17 22 -75 37 -62 16 3
-5 -1 -9 -9 -9 -8 0 -12 4 -9 9 3 4 -14 8 -38 7 -24 0 -38 -3 -32 -5z"/>
<path d="M3870 1523 c0 -5 4 -14 9 -21 7 -11 9 -11 14 1 3 8 3 18 0 21 -9 8
-23 7 -23 -1z"/>
<path d="M3634 1423 c8 -10 26 -32 40 -50 15 -18 34 -30 44 -28 9 2 20 4 24 4
3 1 11 15 17 31 5 17 15 30 20 30 6 0 11 7 11 15 0 21 -32 19 -58 -5 -12 -11
-27 -19 -34 -18 -7 2 -12 -3 -10 -9 4 -23 -13 -13 -30 17 -9 17 -22 30 -27 30
-6 0 -4 -8 3 -17z m101 -53 c-3 -5 -15 -10 -26 -10 -10 0 -19 5 -19 10 0 6 12
10 26 10 14 0 23 -4 19 -10z"/>
<path d="M3666 1427 c3 -10 9 -15 12 -12 3 3 0 11 -7 18 -10 9 -11 8 -5 -6z"/>
<path d="M3845 1429 c-4 -6 -5 -12 -2 -15 2 -3 7 2 10 11 7 17 1 20 -8 4z"/>
<path d="M3600 1428 c0 -4 6 -13 13 -20 7 -7 21 -24 30 -38 9 -13 17 -20 17
-14 0 11 -59 83 -60 72z"/>
<path d="M3785 1349 c-4 -5 -4 -13 -1 -16 3 -4 6 0 6 8 0 11 2 11 10 -1 6 -9
10 -10 10 -3 0 17 -17 25 -25 12z"/>
<path d="M3760 1324 c0 -17 17 -36 24 -26 3 5 -1 15 -9 22 -8 7 -15 9 -15 4z"/>
<path d="M2691 3590 c-33 -41 -58 -54 -47 -23 4 10 -4 6 -20 -10 -15 -15 -24
-30 -21 -34 4 -3 7 -1 7 6 0 8 7 10 19 6 11 -3 22 -1 26 5 8 12 35 13 35 1 0
-5 -6 -11 -12 -14 -7 -2 -4 -3 6 -1 26 4 46 -14 45 -40 -1 -17 -2 -17 -6 -3
-6 23 -23 22 -23 -3 0 -13 7 -20 20 -20 18 0 20 6 19 53 -1 38 -3 45 -8 27 -5
-17 -9 -21 -14 -13 -5 7 -3 22 3 34 7 11 9 23 7 26 -3 2 -8 -5 -12 -16 -7 -24
-25 -28 -25 -6 0 8 5 15 10 15 6 0 10 7 10 16 0 8 4 13 8 10 5 -3 9 1 9 9 0 8
-1 15 -2 15 -1 0 -16 -18 -34 -40z"/>
<path d="M2670 3605 c-7 -9 -11 -17 -9 -20 3 -2 10 5 17 15 14 24 10 26 -8 5z"/>
<path d="M2775 3611 c-3 -5 -2 -12 3 -15 5 -3 9 1 9 9 0 17 -3 19 -12 6z"/>
<path d="M2740 3595 c0 -8 2 -15 4 -15 2 0 6 7 10 15 3 8 1 15 -4 15 -6 0 -10
-7 -10 -15z"/>
<path d="M6289 3548 c-27 -54 -26 -53 -41 -41 -31 24 -128 74 -128 66 0 -5 31
-26 70 -47 l70 -37 -30 -60 c-17 -32 -26 -59 -21 -59 5 0 13 10 16 21 4 12 16
36 27 55 l19 33 66 -36 c37 -20 63 -32 60 -26 -4 6 -32 25 -62 42 -30 17 -55
34 -55 36 0 3 9 24 21 46 11 23 18 43 15 46 -2 3 -14 -15 -27 -39z"/>
<path d="M2761 3564 c0 -11 3 -14 6 -6 3 7 2 16 -1 19 -3 4 -6 -2 -5 -13z"/>
<path d="M2085 3494 c-27 -13 -72 -33 -98 -44 -27 -12 -47 -23 -44 -26 2 -3
48 14 101 37 53 23 98 40 100 38 16 -21 95 -224 89 -230 -10 -9 -195 -91 -198
-87 -1 2 -23 53 -49 113 -26 61 -52 115 -58 120 -13 13 -13 13 47 -128 27 -65
55 -117 62 -117 11 0 212 85 220 93 5 5 -106 252 -114 254 -4 1 -30 -9 -58
-23z"/>
<path d="M2571 3474 c0 -11 3 -14 6 -6 3 7 2 16 -1 19 -3 4 -6 -2 -5 -13z"/>
<path d="M2549 3473 c-5 -37 -6 -74 0 -67 3 5 17 9 30 9 13 0 26 7 29 15 4 12
2 13 -9 3 -15 -15 -43 -17 -34 -3 3 6 2 10 -3 10 -6 0 -8 9 -5 20 3 11 3 20
-1 20 -3 0 -6 -3 -7 -7z"/>
<path d="M2636 3429 c2 -4 -6 -15 -18 -23 -33 -23 -11 -19 28 5 40 25 42 29
10 27 -14 -1 -23 -5 -20 -9z"/>
<path d="M2670 3399 c0 -5 5 -7 10 -4 6 3 10 8 10 11 0 2 -4 4 -10 4 -5 0 -10
-5 -10 -11z"/>
<path d="M2568 3383 c7 -3 16 -2 19 1 4 3 -2 6 -13 5 -11 0 -14 -3 -6 -6z"/>
<path d="M916 3331 c-7 -10 115 -271 127 -271 12 0 337 262 337 272 0 11 -457
10 -464 -1z m431 -18 c-4 -3 -73 -59 -155 -124 l-147 -118 -57 117 c-31 64
-57 120 -57 125 -1 4 94 7 211 7 116 0 208 -3 205 -7z"/>
<path d="M5055 3028 c14 -24 25 -46 25 -50 0 -5 -22 -8 -49 -8 -28 0 -52 -4
-56 -10 -3 -5 1 -26 10 -46 8 -20 15 -38 15 -39 0 -1 -27 -5 -60 -7 -33 -2
-62 -7 -66 -11 -4 -3 9 -47 27 -97 19 -50 35 -87 37 -82 1 5 -10 45 -26 89
l-28 81 35 6 c20 3 49 6 65 6 25 0 28 3 22 23 -23 80 -24 77 38 77 31 0 56 4
56 10 0 13 -53 100 -62 100 -4 0 4 -19 17 -42z"/>
<path d="M5925 2403 c-22 -3 -44 -8 -49 -13 -4 -4 -16 -58 -26 -118 -10 -60
-21 -124 -25 -141 l-7 -31 156 0 c174 0 161 -5 180 73 l6 27 -100 0 -99 0 4
28 c3 15 11 60 19 99 13 73 12 84 -8 81 -6 -1 -29 -3 -51 -5z m55 -20 c0 -5
-7 -43 -15 -86 -22 -116 -29 -107 81 -107 l96 0 -7 -32 c-4 -18 -9 -36 -12
-40 -2 -5 -67 -8 -144 -8 -105 0 -139 3 -139 13 1 48 42 252 52 259 16 10 88
11 88 1z"/>
<path d="M1864 2252 c3 -6 24 -21 46 -33 22 -13 40 -26 40 -29 0 -4 -30 -30
-66 -60 l-67 -53 24 -18 c13 -10 32 -21 42 -25 9 -3 17 -9 17 -13 0 -4 -23
-33 -51 -64 -28 -32 -49 -60 -46 -63 2 -3 31 25 63 61 62 71 62 68 2 101 -16
8 -28 16 -28 18 0 2 29 28 65 57 36 29 64 57 62 62 -1 4 -27 22 -56 39 -30 18
-51 27 -47 20z"/>
<path d="M2565 2209 c5 -30 3 -44 -6 -51 -11 -8 -11 -9 1 -5 8 2 17 14 18 28
5 31 22 51 39 45 7 -3 13 1 13 9 0 19 -15 19 -34 0 -8 -8 -18 -15 -21 -15 -4
0 -5 7 -1 15 3 8 1 15 -5 15 -7 0 -8 -15 -4 -41z"/>
<path d="M2390 2225 c-1 -5 -2 -14 -1 -18 1 -4 -8 -3 -19 3 -15 8 -20 8 -20
-2 0 -9 -3 -9 -10 2 -8 13 -10 12 -10 -4 0 -13 5 -16 16 -12 9 4 23 1 30 -5
11 -9 18 -8 31 2 11 9 14 10 9 2 -5 -9 -2 -11 8 -7 22 9 20 24 -3 24 -11 0
-22 6 -24 13 -3 6 -6 8 -7 2z"/>
<path d="M2513 2202 c-8 -5 -3 -11 13 -19 20 -9 24 -8 24 4 0 8 -4 12 -9 9 -5
-4 -11 -2 -13 4 -1 5 -8 6 -15 2z"/>
<path d="M2600 2190 c0 -11 2 -20 4 -20 2 0 6 9 9 20 3 11 1 20 -4 20 -5 0 -9
-9 -9 -20z"/>
<path d="M2545 2130 c-3 -5 -1 -10 4 -10 6 0 11 5 11 10 0 6 -2 10 -4 10 -3 0
-8 -4 -11 -10z"/>
<path d="M2307 2081 c-11 -22 -11 -29 0 -39 10 -10 12 -8 10 10 -1 14 6 26 21
34 22 11 22 12 3 17 -15 4 -24 -2 -34 -22z"/>
<path d="M2388 2064 c-12 -11 -9 -34 5 -49 8 -7 13 -30 13 -52 -1 -35 -5 -40
-43 -58 -24 -11 -43 -25 -43 -32 0 -16 3 -16 45 1 36 16 45 12 45 -16 0 -10 5
-18 11 -18 7 0 9 10 4 28 -4 15 -7 38 -6 52 1 14 2 35 2 48 1 21 19 33 19 11
0 -5 5 -7 12 -3 8 5 5 11 -10 17 -12 6 -22 18 -22 29 0 10 -4 18 -9 18 -5 0
-11 7 -13 16 -2 9 -6 12 -10 8z"/>
<path d="M2448 2063 c7 -3 16 -2 19 1 4 3 -2 6 -13 5 -11 0 -14 -3 -6 -6z"/>
<path d="M2304 1963 l7 -38 -18 34 c-15 29 -18 31 -24 15 -11 -27 -10 -42 0
-25 7 11 10 9 16 -8 3 -11 12 -21 20 -21 16 0 28 42 13 51 -6 4 -7 12 -4 18 4
6 2 11 -5 11 -8 0 -9 -12 -5 -37z"/>
<path d="M2375 1860 c6 -9 1 -10 -16 -5 -19 6 -21 5 -13 -5 13 -14 48 -10 47
5 -1 5 -7 11 -14 14 -7 2 -9 -1 -4 -9z"/>
<path d="M2956 1851 c-4 -5 3 -7 14 -4 23 6 26 13 6 13 -8 0 -17 -4 -20 -9z"/>
<path d="M2228 1813 c-3 -21 -2 -49 2 -63 l7 -25 5 28 c3 15 2 27 -1 27 -4 0
-5 16 -3 35 2 19 2 35 -1 35 -3 0 -7 -17 -9 -37z"/>
<path d="M3018 1843 c7 -3 16 -2 19 1 4 3 -2 6 -13 5 -11 0 -14 -3 -6 -6z"/>
<path d="M2861 1815 c-1 -15 -3 -17 -10 -7 -7 11 -9 11 -14 -2 -8 -20 2 -48
14 -40 5 3 9 -1 9 -8 0 -8 5 -6 11 5 7 12 7 27 0 45 -7 22 -10 23 -10 7z"/>
<path d="M4345 1800 c-7 -11 22 -46 31 -37 3 2 -2 11 -10 20 -8 8 -12 17 -9
21 4 3 4 6 0 6 -3 0 -9 -5 -12 -10z"/>
<path d="M2751 1786 c-9 -10 -9 -16 -1 -21 6 -4 14 -4 17 -1 4 3 1 6 -7 6 -10
0 -10 3 0 15 7 8 10 15 7 15 -2 0 -10 -6 -16 -14z"/>
<path d="M3103 1785 c-15 -17 -17 -29 -4 -20 6 3 15 -3 21 -12 11 -17 11 -17
6 0 -8 26 13 20 24 -7 9 -25 28 -42 36 -33 3 3 -12 23 -33 45 -32 35 -40 39
-50 27z"/>
<path d="M4388 1791 c8 -4 13 -12 12 -17 -1 -14 41 -17 54 -4 8 9 4 10 -18 4
-19 -4 -27 -3 -23 3 4 6 0 14 -9 17 -23 9 -31 7 -16 -3z"/>
<path d="M2400 1781 c0 -10 19 -25 25 -20 1 2 -3 10 -11 17 -8 7 -14 8 -14 3z"/>
<path d="M4312 1777 c-8 -10 -6 -13 7 -13 11 0 17 6 14 13 -3 7 -6 13 -8 13
-1 0 -7 -6 -13 -13z"/>
<path d="M3237 1764 c-7 -7 35 -44 50 -44 5 0 24 -13 43 -29 19 -15 45 -31 57
-35 11 -4 24 -13 27 -21 3 -8 11 -15 18 -15 19 1 -40 50 -59 50 -14 0 -14 2 3
15 10 8 14 15 9 15 -6 0 -16 -5 -23 -12 -7 -7 -12 -8 -12 -2 0 6 -12 16 -26
22 -14 7 -23 16 -19 22 3 5 -4 7 -16 5 -15 -3 -19 0 -15 11 4 9 2 12 -5 8 -6
-4 -14 -1 -18 5 -4 6 -10 8 -14 5z"/>
<path d="M4199 1750 c-13 -10 -18 -19 -11 -20 6 0 12 5 12 10 0 6 5 10 11 10
5 0 8 -4 5 -9 -3 -5 0 -14 8 -20 10 -9 17 -7 27 6 13 17 13 17 -5 3 -18 -14
-19 -13 -13 3 3 9 2 17 -4 17 -6 0 -7 5 -4 10 10 16 -1 12 -26 -10z"/>
<path d="M3047 1753 c-13 -12 -7 -64 8 -69 19 -7 45 19 45 44 0 25 -37 42 -53
25z m33 -14 c0 -6 -7 -17 -15 -25 -13 -14 -15 -13 -15 10 0 16 6 26 15 26 8 0
15 -5 15 -11z"/>
<path d="M2180 1729 c0 -5 5 -7 10 -4 6 3 10 8 10 11 0 2 -4 4 -10 4 -5 0 -10
-5 -10 -11z"/>
<path d="M2202 1715 c-17 -36 -14 -45 4 -15 14 24 15 24 11 3 -3 -13 -1 -23 4
-23 11 0 12 30 1 48 -6 9 -12 5 -20 -13z"/>
<path d="M3338 1718 c5 -5 16 -8 23 -6 8 3 3 7 -10 11 -17 4 -21 3 -13 -5z"/>
<path d="M2677 1705 c3 -8 9 -12 14 -9 12 7 11 11 -5 17 -10 4 -13 1 -9 -8z"/>
<path d="M3135 1700 c10 -11 22 -17 28 -13 6 4 3 12 -8 20 -28 20 -41 16 -20
-7z"/>
<path d="M4070 1705 c-10 -13 -9 -15 11 -15 20 0 21 2 9 11 -11 8 -6 9 20 4
26 -5 31 -4 20 4 -21 15 -46 13 -60 -4z"/>
<path d="M3189 1699 c-16 -10 -14 -11 24 -13 32 -2 33 0 9 13 -11 6 -24 6 -33
0z"/>
<path d="M2653 1688 c1 -7 -4 -12 -12 -10 -11 2 -12 0 -3 -11 7 -8 9 -17 5
-20 -3 -4 2 -9 11 -13 16 -6 51 14 41 24 -3 3 3 15 12 26 17 20 17 20 0 7 -14
-11 -21 -11 -29 -3 -16 16 -29 15 -25 0z"/>
<path d="M4025 1690 c-3 -6 1 -13 10 -16 21 -9 26 -2 10 13 -9 8 -16 9 -20 3z"/>
<path d="M4627 1693 c-4 -3 -7 -16 -6 -27 0 -19 1 -19 10 3 10 24 8 36 -4 24z"/>
<path d="M5203 1689 c-35 -10 -80 -58 -89 -95 -23 -91 70 -182 163 -159 40 9
82 53 94 97 25 94 -71 184 -168 157z m123 -43 c28 -28 34 -42 34 -75 0 -57
-22 -95 -66 -116 -93 -44 -196 43 -164 140 17 52 62 85 117 85 38 0 50 -5 79
-34z"/>
<path d="M4485 1641 c0 -22 4 -43 9 -48 5 -4 6 3 3 16 -3 14 -1 31 4 38 6 6 8
17 4 23 -13 20 -21 9 -20 -29z"/>
<path d="M3197 1664 c-10 -11 3 -24 23 -24 13 0 17 5 14 15 -6 15 -26 20 -37
9z"/>
<path d="M4520 1660 c0 -5 5 -10 10 -10 6 0 10 5 10 10 0 6 -4 10 -10 10 -5 0
-10 -4 -10 -10z"/>
<path d="M2180 1635 c-13 -35 -13 -35 10 -35 15 0 20 7 20 24 0 35 -18 42 -30
11z"/>
<path d="M4510 1630 c0 -5 5 -10 10 -10 6 0 10 5 10 10 0 6 -4 10 -10 10 -5 0
-10 -4 -10 -10z"/>
<path d="M4660 1630 c0 -5 5 -10 11 -10 5 0 8 -4 5 -8 -2 -4 4 -8 14 -8 10 0
16 6 13 13 -3 7 -9 10 -14 7 -5 -3 -9 0 -9 5 0 6 -4 11 -10 11 -5 0 -10 -4
-10 -10z"/>
<path d="M4144 1620 c-6 -6 -27 -11 -48 -12 -26 -1 -33 -4 -23 -10 17 -9 75 0
83 14 9 14 -1 19 -12 8z"/>
<path d="M3250 1608 c0 -16 32 -21 52 -9 10 6 23 9 28 6 6 -4 10 -2 10 3 0 5
-20 9 -45 9 -25 0 -45 -4 -45 -9z"/>
<path d="M2831 1594 c0 -11 3 -14 6 -6 3 7 2 16 -1 19 -3 4 -6 -2 -5 -13z"/>
<path d="M4499 1583 c-18 -16 -30 -22 -26 -16 6 9 3 11 -9 6 -10 -4 -15 -2
-11 3 3 5 -2 10 -11 11 -9 1 -29 5 -44 9 -17 4 -28 2 -28 -4 0 -6 10 -8 22 -4
14 3 19 2 14 -6 -4 -7 0 -15 8 -18 9 -3 16 -11 16 -16 0 -6 -6 -8 -13 -5 -8 3
-14 -1 -14 -8 0 -11 5 -11 19 -4 12 6 17 17 14 26 -4 9 -1 13 6 11 26 -9 17
-27 -21 -44 -40 -19 -51 -37 -30 -49 6 -4 8 -12 6 -19 -6 -14 30 -19 38 -5 4
5 14 9 23 9 15 0 15 -2 2 -10 -12 -8 -10 -9 7 -7 28 4 42 17 19 17 -9 0 -14 4
-11 10 3 5 2 17 -3 26 -6 11 -11 13 -16 5 -4 -6 -2 -11 3 -11 6 0 11 -4 11 -9
0 -5 -15 -9 -34 -8 -34 1 -34 1 -13 16 12 8 43 32 68 53 25 20 49 35 52 32 3
-3 3 3 0 15 -3 12 -7 21 -8 21 -2 0 -18 -12 -36 -27z m-64 -123 c-3 -5 -11
-10 -16 -10 -6 0 -7 5 -4 10 3 6 11 10 16 10 6 0 7 -4 4 -10z"/>
<path d="M2910 1585 c0 -9 -7 -27 -16 -40 -16 -24 -15 -25 5 -25 16 0 21 6 21
24 0 13 3 31 6 40 3 9 1 16 -5 16 -6 0 -11 -7 -11 -15z"/>
<path d="M2768 1583 c6 -2 12 -11 12 -19 0 -8 5 -14 10 -14 6 0 10 4 10 8 0
12 -22 32 -34 31 -6 0 -5 -3 2 -6z"/>
<path d="M2700 1550 c6 -11 13 -20 15 -20 3 0 5 9 5 20 0 11 -7 20 -15 20 -13
0 -14 -4 -5 -20z"/>
<path d="M2132 1516 c-1 -25 -6 -55 -12 -65 -5 -11 -10 -26 -10 -33 1 -7 7 1
15 17 12 26 13 27 14 8 1 -12 -4 -34 -9 -49 -6 -15 -8 -29 -5 -32 8 -9 17 5
25 40 l8 33 1 -37 c1 -44 18 -50 27 -10 3 15 7 33 10 40 2 6 -1 12 -7 12 -5 0
-17 15 -25 33 l-15 32 5 -35 c5 -28 4 -31 -5 -17 -6 10 -8 33 -5 50 3 18 2 38
-3 46 -5 8 -9 -3 -9 -33z"/>
<path d="M2952 1540 c0 -14 2 -19 5 -12 2 6 2 18 0 25 -3 6 -5 1 -5 -13z"/>
<path d="M3970 1518 c0 -4 4 -8 9 -8 6 0 12 4 15 8 3 5 -1 9 -9 9 -8 0 -15 -4
-15 -9z"/>
<path d="M2504 1507 c-6 -7 -10 -29 -8 -48 3 -30 2 -31 -5 -9 l-9 25 0 -25 c0
-14 4 -38 8 -55 l8 -30 1 30 c1 23 3 27 11 15 5 -8 10 -13 11 -10 5 29 4 48
-4 43 -6 -4 -8 10 -4 35 3 23 4 42 4 42 -1 -1 -7 -6 -13 -13z"/>
<path d="M2536 1505 c-3 -9 -6 -24 -5 -33 0 -9 5 -4 10 12 9 32 6 48 -5 21z"/>
<path d="M2690 1482 c0 -21 -4 -42 -9 -47 -4 -6 -11 -26 -14 -45 -3 -19 -3
-29 0 -22 2 6 10 12 17 12 8 0 12 23 14 70 1 39 0 70 -3 70 -3 0 -5 -17 -5
-38z"/>
<path d="M4342 1500 c-12 -12 -21 -31 -21 -43 l2 -22 4 23 c2 12 8 22 12 22 4
0 13 -10 18 -22 9 -20 11 -17 9 19 0 24 -1 43 -2 43 0 0 -10 -9 -22 -20z"/>
<path d="M2222 1478 c2 -21 1 -38 -3 -38 -4 0 -9 -13 -11 -29 -2 -17 -1 -28 4
-25 4 3 8 14 8 24 0 10 5 22 10 25 13 8 13 46 -1 65 -8 11 -9 6 -7 -22z"/>
<path d="M3950 1480 c-6 -11 -8 -25 -5 -30 11 -18 20 -10 21 20 1 35 -2 37
-16 10z"/>
<path d="M3970 1466 c0 -8 5 -18 10 -21 6 -3 10 3 10 14 0 12 -4 21 -10 21 -5
0 -10 -6 -10 -14z"/>
<path d="M4613 1465 c-9 -10 -9 -14 0 -18 15 -5 37 2 37 13 0 14 -25 18 -37 5z"/>
<path d="M4815 1460 c10 -11 20 -20 22 -20 2 0 -1 9 -7 20 -6 11 -16 20 -22
20 -6 0 -3 -9 7 -20z"/>
<path d="M3360 1450 c0 -5 5 -10 10 -10 6 0 10 5 10 10 0 6 -4 10 -10 10 -5 0
-10 -4 -10 -10z"/>
<path d="M2712 1420 c0 -19 2 -27 5 -17 2 9 2 25 0 35 -3 9 -5 1 -5 -18z"/>
<path d="M2808 1415 c-3 -14 -1 -28 3 -31 5 -3 9 9 9 25 0 38 -6 40 -12 6z"/>
<path d="M2835 1429 c-11 -17 1 -21 15 -4 8 9 8 15 2 15 -6 0 -14 -5 -17 -11z"/>
<path d="M2930 1421 c0 -11 5 -23 10 -26 6 -4 10 5 10 19 0 14 -4 26 -10 26
-5 0 -10 -9 -10 -19z"/>
<path d="M3523 1384 c-1 -42 2 -54 14 -54 12 0 14 7 9 33 -4 17 -7 40 -7 49 0
10 -3 19 -7 22 -4 2 -8 -20 -9 -50z"/>
<path d="M2402 1389 c3 -34 22 -57 33 -39 4 7 2 17 -4 23 -6 6 -11 19 -11 29
0 10 -5 18 -10 18 -6 0 -9 -14 -8 -31z"/>
<path d="M2831 1374 c0 -11 3 -14 6 -6 3 7 2 16 -1 19 -3 4 -6 -2 -5 -13z"/>
<path d="M2901 1374 c0 -11 3 -14 6 -6 3 7 2 16 -1 19 -3 4 -6 -2 -5 -13z"/>
<path d="M3886 1373 c-6 -14 -5 -15 5 -6 7 7 10 15 7 18 -3 3 -9 -2 -12 -12z"/>
<path d="M3918 1371 c-10 -10 -17 -29 -17 -42 1 -21 2 -21 9 6 6 24 8 26 9 8
2 -41 51 -20 51 22 0 16 -2 17 -10 5 -8 -13 -10 -12 -10 3 0 21 -10 21 -32 -2z"/>
<path d="M2506 1355 c-9 -26 -7 -32 5 -12 6 10 9 21 6 23 -2 3 -7 -2 -11 -11z"/>
<path d="M2445 1343 c-5 -10 -9 -41 -10 -70 -2 -71 20 -39 23 35 3 54 -1 64
-13 35z"/>
<path d="M2720 1350 c0 -5 9 -10 20 -10 11 0 20 5 20 10 0 6 -9 10 -20 10 -11
0 -20 -4 -20 -10z"/>
<path d="M2922 1330 c-1 -19 5 -53 13 -75 l14 -40 1 33 c0 17 -4 32 -9 32 -6
0 -12 19 -14 43 -3 38 -4 39 -5 7z"/>
<path d="M4643 1345 c-3 -9 -3 -19 1 -22 3 -4 6 1 6 11 0 9 5 14 10 11 6 -3
10 -1 10 4 0 17 -20 13 -27 -4z"/>
<path d="M4659 1318 c-17 -24 -35 -42 -41 -40 -5 1 -7 -2 -3 -8 3 -5 -1 -22
-9 -37 -8 -16 -20 -49 -27 -75 -7 -26 -15 -45 -18 -43 -4 1 -7 -34 -8 -79 -3
-99 -22 -198 -36 -189 -6 3 -7 1 -3 -6 4 -6 4 -25 1 -43 -5 -21 -10 -27 -15
-17 -5 7 -6 17 -3 23 3 5 1 6 -5 2 -8 -4 -8 -15 -2 -31 10 -27 -6 -84 -36
-130 -20 -30 -11 -48 11 -19 19 26 61 142 85 238 11 44 23 82 26 85 3 3 39
-29 80 -71 41 -43 77 -78 79 -78 11 0 3 19 -19 45 -17 20 -23 35 -19 54 3 14
5 34 5 44 0 9 3 15 9 12 5 -4 9 14 8 42 0 30 -3 41 -8 30 -4 -11 -7 4 -7 37
-1 31 2 54 5 51 4 -2 8 6 8 18 2 17 0 19 -7 7 -8 -12 -10 -9 -10 11 0 27 31
64 44 52 4 -4 4 0 1 8 -3 9 -1 27 4 42 11 30 -8 53 -35 43 -12 -5 -15 -2 -10
11 6 14 4 15 -5 6 -15 -15 -1 -36 20 -30 28 7 22 -29 -10 -64 -16 -17 -27 -25
-24 -17 3 8 -3 23 -13 33 -17 18 -18 23 -6 47 8 15 23 33 35 42 20 14 19 36
-2 36 -5 0 -23 -19 -40 -42z"/>
<path d="M2801 1334 c0 -11 3 -14 6 -6 3 7 2 16 -1 19 -3 4 -6 -2 -5 -13z"/>
<path d="M3871 1339 c0 -9 -11 -24 -23 -33 -13 -9 -17 -14 -10 -11 6 3 12 1
12 -4 0 -6 9 -11 20 -11 11 0 20 4 20 10 0 5 -7 7 -15 4 -8 -4 -15 -2 -15 4 0
6 5 12 11 14 6 2 9 13 6 23 -3 15 -5 16 -6 4z"/>
<path d="M2600 1303 c-29 -21 -31 -24 -10 -18 26 7 57 32 49 39 -2 2 -20 -7
-39 -21z"/>
<path d="M2481 1293 c-10 -26 -10 -27 4 -9 8 11 15 23 15 28 0 15 -7 8 -19
-19z"/>
<path d="M2817 1313 c-4 -3 -7 -11 -7 -17 0 -6 5 -5 12 2 6 6 9 14 7 17 -3 3
-9 2 -12 -2z"/>
<path d="M3555 1305 c-3 -8 -7 -22 -10 -30 -2 -8 4 -19 15 -25 25 -14 30 -13
30 6 0 8 5 12 10 9 6 -3 10 -1 10 4 0 6 -5 11 -12 11 -6 0 -9 3 -5 6 6 6 -16
34 -28 34 -3 0 -8 -7 -10 -15z"/>
<path d="M2406 1249 c-6 -34 -1 -49 17 -49 8 0 8 3 0 11 -7 7 -9 25 -6 40 3
16 3 29 1 29 -3 0 -8 -14 -12 -31z"/>
<path d="M2546 1265 c-3 -8 -1 -15 4 -15 6 0 10 7 10 15 0 8 -2 15 -4 15 -2 0
-6 -7 -10 -15z"/>
<path d="M2754 1271 c3 -5 -2 -19 -12 -32 -10 -13 -17 -30 -16 -36 1 -7 2 -18
3 -23 1 -7 7 -6 15 2 8 7 12 16 10 19 -1 3 6 13 17 22 26 23 25 57 -2 57 -11
0 -18 -4 -15 -9z"/>
<path d="M3816 1262 c-3 -5 1 -15 9 -22 16 -14 20 -3 6 19 -5 8 -11 9 -15 3z"/>
<path d="M4565 1232 c1 -24 6 -46 10 -50 5 -4 5 1 2 10 -3 10 -2 20 3 23 13 8
12 18 -4 40 -12 17 -13 15 -11 -23z"/>
<path d="M4701 1253 c0 -11 3 -13 6 -5 2 6 9 10 14 6 5 -3 9 0 9 5 0 6 -7 11
-15 11 -8 0 -15 -8 -14 -17z"/>
<path d="M4765 1251 c-6 -20 13 -71 27 -71 11 0 10 17 -1 22 -4 2 -12 14 -16
27 -5 16 -4 21 4 17 6 -4 11 -3 11 3 0 19 -19 21 -25 2z"/>
<path d="M2912 1235 c0 -16 4 -43 8 -60 l8 -30 0 30 c0 17 -4 44 -8 60 l-8 30
0 -30z"/>
<path d="M4590 1249 c0 -5 5 -7 10 -4 6 3 10 8 10 11 0 2 -4 4 -10 4 -5 0 -10
-5 -10 -11z"/>
<path d="M3611 1224 c0 -11 3 -14 6 -6 3 7 2 16 -1 19 -3 4 -6 -2 -5 -13z"/>
<path d="M4485 1230 c-3 -5 -1 -10 4 -10 6 0 11 5 11 10 0 6 -2 10 -4 10 -3 0
-8 -4 -11 -10z"/>
<path d="M3670 1220 c0 -5 5 -10 11 -10 5 0 7 -5 3 -12 -4 -7 -3 -8 5 -4 9 6
9 11 0 22 -14 17 -19 18 -19 4z"/>
<path d="M4960 1203 c0 -29 12 -24 17 7 2 11 -2 20 -7 20 -6 0 -10 -12 -10
-27z"/>
<path d="M2953 1160 c0 -25 2 -35 4 -22 2 12 2 32 0 45 -2 12 -4 2 -4 -23z"/>
<path d="M3823 1157 c-7 -24 -7 -34 1 -34 6 0 12 15 13 34 4 42 -1 42 -14 0z"/>
<path d="M4516 1173 c-3 -3 -6 -17 -6 -30 0 -12 -5 -23 -12 -23 -7 0 -6 -6 4
-17 9 -10 18 -25 21 -33 4 -12 6 -12 12 4 5 11 3 22 -6 28 -11 7 -11 11 -1 15
6 2 12 15 12 28 0 25 -12 39 -24 28z"/>
<path d="M5007 1146 c6 -28 22 -33 41 -14 15 15 15 25 0 25 -7 0 -20 4 -29 7
-13 6 -16 2 -12 -18z"/>
<path d="M2520 1142 c0 -10 7 -19 15 -19 8 0 15 9 15 19 0 10 -7 18 -15 18 -8
0 -15 -8 -15 -18z"/>
<path d="M2060 1117 c0 -20 4 -38 9 -42 6 -3 7 10 4 32 -8 50 -13 55 -13 10z"/>
<path d="M4730 1130 c0 -5 5 -10 11 -10 5 0 7 5 4 10 -3 6 -8 10 -11 10 -2 0
-4 -4 -4 -10z"/>
<path d="M3528 1123 c7 -3 16 -2 19 1 4 3 -2 6 -13 5 -11 0 -14 -3 -6 -6z"/>
<path d="M5057 1123 c-12 -11 -8 -48 8 -69 8 -10 15 -14 15 -7 0 6 -4 15 -10
18 -14 9 -12 52 3 58 6 3 7 6 1 6 -6 1 -14 -2 -17 -6z"/>
<path d="M2933 1080 c0 -25 2 -35 4 -22 2 12 2 32 0 45 -2 12 -4 2 -4 -23z"/>
<path d="M3820 1100 c-8 -5 -12 -11 -9 -14 2 -3 11 -1 19 4 8 5 12 11 9 14 -2
3 -11 1 -19 -4z"/>
<path d="M4768 1103 c7 -3 16 -2 19 1 4 3 -2 6 -13 5 -11 0 -14 -3 -6 -6z"/>
<path d="M5080 1100 c0 -21 17 -46 25 -38 4 4 0 17 -9 30 -10 14 -16 17 -16 8z"/>
<path d="M4482 1080 c0 -14 2 -19 5 -12 2 6 2 18 0 25 -3 6 -5 1 -5 -13z"/>
<path d="M3820 1055 c-7 -8 -9 -15 -5 -15 4 0 2 -7 -5 -15 -7 -8 -27 -15 -45
-15 -18 0 -46 -7 -61 -15 -16 -8 -22 -15 -13 -15 8 0 19 4 25 9 13 12 104 21
104 10 0 -10 -29 -14 -70 -10 -19 2 -22 -1 -14 -9 6 -6 32 -12 58 -14 27 -1
41 1 34 6 -9 5 -10 11 -3 16 8 5 16 82 9 82 -1 0 -7 -7 -14 -15z"/>
<path d="M4485 1040 c-3 -5 -1 -10 5 -10 8 0 11 -14 8 -39 -2 -22 0 -37 4 -35
5 3 12 -5 16 -17 8 -20 9 -20 15 -5 8 21 0 39 -15 30 -7 -4 -9 9 -7 40 3 31 0
46 -8 46 -6 0 -15 -4 -18 -10z"/>
<path d="M2060 1026 c0 -8 4 -17 9 -20 5 -4 7 3 4 14 -6 23 -13 26 -13 6z"/>
<path d="M2953 975 c0 -38 2 -53 4 -32 2 20 2 52 0 70 -2 17 -4 1 -4 -38z"/>
<path d="M5126 1028 c3 -4 -2 -11 -10 -14 -9 -3 -16 -14 -16 -25 0 -10 -8 -22
-17 -28 -10 -5 -15 -13 -11 -17 4 -4 14 -1 23 6 14 12 19 7 16 -13 -1 -5 3 -6
8 -3 5 3 7 19 5 35 -3 17 0 32 7 37 8 4 9 3 5 -5 -8 -13 1 -51 13 -51 4 0 8 7
8 15 0 8 -4 12 -9 9 -4 -3 -8 2 -8 11 0 10 5 15 14 12 11 -4 11 -1 3 17 -6 13
-17 23 -24 23 -6 0 -10 -4 -7 -9z"/>
<path d="M2922 963 c-1 -28 -6 -55 -12 -58 -13 -8 -13 -25 0 -25 12 0 23 58
17 101 -3 26 -4 22 -5 -18z"/>
<path d="M4481 984 c0 -11 3 -14 6 -6 3 7 2 16 -1 19 -3 4 -6 -2 -5 -13z"/>
<path d="M3708 963 c7 -3 16 -2 19 1 4 3 -2 6 -13 5 -11 0 -14 -3 -6 -6z"/>
<path d="M2116 951 c-2 -3 7 -20 20 -36 14 -17 22 -22 18 -12 -3 9 -1 17 5 17
6 0 11 -5 11 -11 0 -5 16 -17 35 -25 22 -9 33 -19 30 -27 -4 -7 0 -4 7 5 9 11
19 14 28 8 9 -5 20 -4 28 2 10 9 12 8 10 -2 -2 -7 3 -15 10 -17 6 -3 12 3 12
12 0 9 5 13 10 10 6 -4 8 -11 5 -16 -10 -14 9 -11 31 7 10 8 13 12 6 9 -8 -4
-22 2 -34 14 -16 17 -23 20 -34 10 -8 -6 -14 -8 -14 -3 0 4 -5 3 -12 -4 -7 -7
-17 -12 -22 -12 -6 0 -4 5 4 10 9 6 10 10 3 10 -6 0 -15 -5 -19 -12 -5 -7 -10
-4 -15 10 -5 12 -17 22 -27 22 -19 0 -46 23 -38 31 3 2 -9 5 -25 5 -16 1 -31
-1 -33 -5z m44 -13 c0 -14 -15 -16 -27 -3 -10 11 -9 13 7 12 11 -1 20 -5 20
-9z"/>
<path d="M2360 950 c0 -5 4 -10 9 -10 6 0 13 5 16 10 3 6 -1 10 -9 10 -9 0
-16 -4 -16 -10z"/>
<path d="M2412 948 c10 -8 10 -11 1 -15 -7 -2 -13 -12 -13 -21 0 -14 1 -14 13
0 14 18 67 33 67 19 0 -6 7 -8 17 -4 13 5 12 8 -8 16 -32 13 -94 17 -77 5z"/>
<path d="M4963 938 c3 -9 1 -18 -5 -20 -6 -2 -8 -9 -5 -15 8 -12 47 -6 47 8 0
5 7 9 15 9 8 0 15 5 15 11 0 6 -9 8 -20 4 -12 -4 -28 -1 -37 7 -14 11 -16 11
-10 -4z"/>
<path d="M5040 936 c0 -2 7 -7 16 -10 8 -3 12 -2 9 4 -6 10 -25 14 -25 6z"/>
<path d="M4493 900 c-8 -21 -8 -28 0 -23 6 4 8 0 4 -10 -9 -23 0 -21 13 2 5
11 6 29 2 40 -7 20 -8 19 -19 -9z"/>
<path d="M2432 908 c-14 -14 -16 -28 -3 -28 9 0 24 30 18 36 -2 2 -9 -2 -15
-8z"/>
<path d="M4762 906 c-21 -12 -21 -14 -5 -28 19 -16 112 -42 120 -34 3 3 -12 8
-33 12 -39 8 -39 8 -10 13 16 4 31 12 34 20 3 9 -2 11 -17 6 -25 -8 -64 3 -56
16 8 12 -5 10 -33 -5z"/>
<path d="M2190 870 c8 -5 20 -10 25 -10 6 0 3 5 -5 10 -8 5 -19 10 -25 10 -5
0 -3 -5 5 -10z"/>
<path d="M4715 870 c-3 -5 -2 -10 4 -10 5 0 13 -9 16 -20 3 -11 10 -20 15 -20
5 0 7 7 4 15 -5 11 -2 13 11 9 16 -6 16 -5 -1 14 -20 24 -39 28 -49 12z m35
-10 c0 -5 -2 -10 -4 -10 -3 0 -8 5 -11 10 -3 6 -1 10 4 10 6 0 11 -4 11 -10z"/>
<path d="M4887 873 c-3 -5 14 -9 37 -9 30 -1 36 1 21 6 -26 11 -53 12 -58 3z"/>
<path d="M3255 790 c-3 -6 1 -13 10 -16 19 -8 30 0 20 15 -8 14 -22 14 -30 1z"/>
<path d="M3447 788 c-7 -4 3 -8 26 -8 20 0 37 4 37 8 0 10 -46 10 -63 0z"/>
<path d="M2980 771 c0 -12 5 -21 10 -21 6 0 10 6 10 14 0 8 -4 18 -10 21 -5 3
-10 -3 -10 -14z"/>
<path d="M2890 764 c0 -8 5 -12 10 -9 6 4 8 11 5 16 -9 14 -15 11 -15 -7z"/>
<path d="M3300 760 c0 -11 4 -20 9 -20 5 0 13 -9 16 -20 3 -11 10 -20 15 -20
13 0 21 33 10 40 -8 5 -6 9 5 14 46 17 62 -10 23 -39 l-23 -17 25 7 c30 9 40
22 40 53 0 25 -28 30 -60 10 -16 -10 -24 -10 -40 0 -18 11 -20 10 -20 -8z"/>
<path d="M4383 760 c-13 -5 -23 -11 -23 -12 0 -2 -4 -18 -9 -36 -7 -22 -6 -30
1 -26 6 4 8 -1 3 -16 -5 -15 -2 -25 6 -31 10 -6 11 -9 2 -9 -7 0 -13 -7 -13
-15 0 -21 9 -19 31 8 18 21 19 21 17 2 -2 -11 -7 -24 -13 -28 -6 -5 -4 -7 5
-4 8 2 14 10 12 17 -2 8 3 10 14 6 13 -5 14 -4 6 7 -7 8 -9 17 -5 20 3 4 2 7
-4 7 -15 0 -11 42 5 48 6 2 12 -1 12 -6 0 -6 -5 -12 -12 -14 -9 -3 -9 -6 0
-12 7 -4 14 3 18 19 3 14 10 25 16 25 5 0 6 -10 3 -22 -5 -18 -4 -20 4 -8 18
25 13 42 -11 38 -11 -2 -23 3 -26 11 -3 9 0 11 9 6 8 -5 5 1 -5 13 -11 12 -20
22 -20 21 -1 0 -11 -4 -23 -9z"/>
<path d="M2928 727 c6 -7 9 -22 6 -34 -4 -13 0 -22 11 -27 14 -5 16 -1 11 27
-4 23 -4 27 3 12 8 -19 9 -19 16 -1 9 20 -8 36 -39 36 -14 0 -16 -3 -8 -13z"/>
<path d="M2898 701 c4 -10 7 -11 10 -3 2 7 8 10 13 6 5 -3 9 -1 9 5 0 5 -9 9
-19 8 -12 -1 -17 -6 -13 -16z"/>
<path d="M3235 706 c-44 -17 -40 -33 10 -41 25 -3 45 -10 45 -16 0 -5 8 -9 18
-9 10 0 27 -6 37 -14 11 -8 25 -12 31 -9 7 2 15 0 19 -6 3 -6 16 -11 29 -11
12 0 27 -5 34 -12 6 -6 25 -13 42 -15 17 -1 47 -11 68 -20 53 -24 59 -26 42
-13 -22 17 28 2 59 -17 13 -8 21 -11 18 -6 -4 5 15 5 43 -1 28 -5 46 -12 41
-15 -5 -4 40 -7 101 -9 93 -3 112 -1 122 13 7 9 28 21 46 26 l35 9 -38 -5
c-22 -2 -35 0 -32 6 4 5 17 9 31 9 35 0 29 17 -8 23 -22 3 -39 -1 -51 -11 -10
-9 -36 -17 -58 -18 -22 -1 -43 -4 -46 -8 -12 -12 58 -6 91 8 31 13 32 12 31
-8 -1 -18 -8 -21 -56 -23 -30 -1 -61 0 -69 4 -14 6 -43 11 -80 14 -27 2 -204
47 -235 60 -16 7 -33 12 -37 11 -7 -2 -74 21 -212 70 -53 19 -57 23 -40 35 21
15 11 15 -31 -1z"/>
<path d="M3410 700 c-13 -8 -13 -10 2 -10 9 0 20 5 23 10 8 13 -5 13 -25 0z"/>
<path d="M3285 693 c11 -2 27 -7 35 -10 8 -3 21 -5 29 -4 7 1 10 -2 7 -7 -3
-6 2 -8 14 -5 11 3 20 1 20 -5 0 -5 9 -12 21 -15 16 -4 18 -3 9 8 -15 18 -96
45 -129 44 -20 -1 -22 -2 -6 -6z"/>
<path d="M3020 660 c0 -5 5 -10 11 -10 5 0 7 5 4 10 -3 6 -8 10 -11 10 -2 0
-4 -4 -4 -10z"/>
<path d="M3486 662 c-2 -4 4 -8 15 -8 10 0 19 4 19 8 0 4 -6 8 -14 8 -8 0 -17
-4 -20 -8z"/>
<path d="M3215 650 c11 -5 27 -9 35 -9 9 0 8 4 -5 9 -11 5 -27 9 -35 9 -9 0
-8 -4 5 -9z"/>
<path d="M3468 633 c7 -3 16 -2 19 1 4 3 -2 6 -13 5 -11 0 -14 -3 -6 -6z"/>
<path d="M3514 626 c-8 -9 -3 -12 22 -12 18 0 32 1 31 2 -21 16 -44 20 -53 10z"/>
<path d="M3576 627 c12 -7 19 -18 17 -24 -3 -8 3 -13 14 -13 15 0 16 2 3 10
-12 8 -9 10 12 10 15 0 30 -4 33 -10 3 -5 1 -10 -5 -10 -6 0 -8 -4 -5 -10 3
-5 11 -10 16 -10 6 0 7 5 4 10 -3 6 0 10 7 10 23 1 -24 30 -48 30 -13 0 -26 5
-29 10 -3 6 -14 10 -23 10 -14 -1 -13 -3 4 -13z"/>
<path d="M3628 633 c7 -3 16 -2 19 1 4 3 -2 6 -13 5 -11 0 -14 -3 -6 -6z"/>
<path d="M4326 631 c-3 -5 -22 -12 -41 -15 -46 -9 -35 -26 14 -23 22 1 37 6
34 10 -3 4 1 14 7 22 8 10 9 15 2 15 -6 0 -13 -4 -16 -9z"/>
<path d="M3313 606 c9 -7 17 -18 17 -24 0 -6 5 -14 12 -18 8 -5 9 -2 5 9 -5
13 0 17 21 18 26 0 26 1 -8 14 -48 18 -71 19 -47 1z"/>
<path d="M4167 603 c-16 -15 -6 -33 16 -29 12 3 25 5 30 5 4 1 7 8 7 16 0 15
-40 21 -53 8z"/>
<path d="M3389 573 c-13 -15 -12 -15 6 -6 11 6 27 13 35 16 10 4 8 6 -6 6 -12
1 -28 -6 -35 -16z"/>
<path d="M3025 570 c6 -9 -8 -14 -28 -11 -4 1 -3 -8 3 -19 12 -23 22 -27 14
-5 -4 8 -1 15 4 15 6 0 13 -10 15 -22 2 -13 4 -6 4 15 0 20 -4 37 -9 37 -5 0
-6 -4 -3 -10z"/>
<path d="M3295 570 c-3 -5 -1 -10 4 -10 6 0 11 5 11 10 0 6 -2 10 -4 10 -3 0
-8 -4 -11 -10z"/>
<path d="M4080 565 c0 -8 4 -15 10 -15 5 0 7 7 4 15 -4 8 -8 15 -10 15 -2 0
-4 -7 -4 -15z"/>
<path d="M3428 563 c6 -2 18 -2 25 0 6 3 1 5 -13 5 -14 0 -19 -2 -12 -5z"/>
<path d="M3910 560 c-13 -8 -13 -10 2 -10 9 0 20 5 23 10 8 13 -5 13 -25 0z"/>
<path d="M3788 553 c7 -3 16 -2 19 1 4 3 -2 6 -13 5 -11 0 -14 -3 -6 -6z"/>
<path d="M3830 550 c-8 -5 -10 -10 -5 -10 6 0 17 5 25 10 8 5 11 10 5 10 -5 0
-17 -5 -25 -10z"/>
<path d="M4123 553 c-18 -7 -16 -23 2 -23 8 0 15 5 15 11 0 6 7 8 16 5 8 -3
12 -2 9 4 -7 11 -22 12 -42 3z"/>
<path d="M4230 550 c-9 -6 -10 -10 -3 -10 6 0 15 5 18 10 8 12 4 12 -15 0z"/>
<path d="M3293 525 c-28 -31 -8 -48 22 -19 8 9 22 13 30 10 9 -3 12 0 8 10 -7
18 -44 18 -60 -1z"/>
<path d="M3531 523 c-6 -10 -11 -15 -11 -11 0 4 -13 3 -29 -2 -19 -5 -33 -4
-40 3 -8 8 -14 8 -23 -1 -7 -7 -21 -13 -32 -14 -12 0 -1 -4 24 -7 l45 -7 -35
-10 c-33 -10 -31 -11 26 -10 37 1 60 5 58 11 -3 6 9 19 26 28 17 10 28 23 25
28 -9 14 -23 11 -34 -8z"/>
<path d="M3618 513 c6 -2 18 -2 25 0 6 3 1 5 -13 5 -14 0 -19 -2 -12 -5z"/>
<path d="M3700 500 c0 -5 5 -10 11 -10 5 0 7 5 4 10 -3 6 -8 10 -11 10 -2 0
-4 -4 -4 -10z"/>
<path d="M3610 490 c20 -13 43 -13 35 0 -3 6 -16 10 -28 10 -18 0 -19 -2 -7
-10z"/>
<path d="M3130 470 c8 -5 24 -10 34 -10 26 0 18 6 -19 14 -22 5 -26 4 -15 -4z"/>
<path d="M3258 473 c7 -3 16 -2 19 1 4 3 -2 6 -13 5 -11 0 -14 -3 -6 -6z"/>
</g>
</svg>
