<?xml version="1.0" standalone="no"?>
<!DOCTYPE svg PUBLIC "-//W3C//DTD SVG 20010904//EN"
 "http://www.w3.org/TR/2001/REC-SVG-20010904/DTD/svg10.dtd">
<svg version="1.0" xmlns="http://www.w3.org/2000/svg"
 width="483.000000pt" height="644.000000pt" viewBox="0 0 483.000000 644.000000"
 preserveAspectRatio="xMidYMid meet">

<g transform="translate(0.000000,644.000000) scale(0.100000,-0.100000)"
fill="#000000" stroke="none">
<path d="M2442 6199 c-106 -13 -219 -46 -392 -113 -91 -36 -219 -85 -285 -111
-308 -119 -519 -281 -700 -540 -119 -170 -241 -430 -261 -555 -4 -22 -10 -40
-14 -40 -9 0 -24 -70 -16 -77 2 -3 10 13 15 35 8 28 16 39 29 38 14 -1 16 6
14 42 -3 44 13 59 21 20 3 -16 5 -13 7 12 2 33 3 33 10 10 5 -15 8 -18 9 -9 1
22 25 31 40 16 9 -9 14 -8 21 4 5 9 32 26 59 38 36 15 49 25 45 36 -6 16 -1
15 59 -7 19 -8 27 -18 28 -37 1 -17 3 -20 6 -8 3 10 0 32 -6 49 -7 21 -8 35
-1 42 12 12 24 -17 24 -61 0 -17 3 -30 7 -27 4 2 7 22 7 43 0 42 7 61 24 61 6
0 7 -7 3 -17 -4 -10 -9 -33 -12 -52 -2 -19 -8 -42 -14 -53 -29 -54 -83 -321
-106 -526 -4 -36 -9 -49 -15 -40 -5 8 -6 -5 -2 -33 4 -29 2 -49 -5 -53 -6 -4
-39 -9 -73 -11 -35 -2 -98 -6 -140 -8 -72 -5 -78 -4 -78 14 0 10 -4 19 -10 19
-5 0 -10 -6 -10 -14 0 -7 -6 -19 -14 -25 -11 -10 -15 -8 -19 6 -3 12 -5 9 -6
-9 -2 -40 -21 -34 374 -128 66 -15 192 -45 280 -65 88 -20 170 -40 181 -45 36
-14 100 -19 335 -25 179 -5 228 -4 236 7 14 17 28 68 54 193 80 398 172 657
271 768 l43 47 54 -27 c275 -142 363 -510 201 -833 -71 -142 -148 -232 -347
-412 l-133 -119 21 -41 c61 -120 73 -167 73 -298 1 -126 -5 -160 -47 -270 -52
-137 -159 -258 -276 -312 -37 -17 -73 -34 -81 -38 -8 -4 -47 -15 -87 -24 -53
-13 -74 -23 -78 -37 -4 -10 -13 -19 -20 -19 -8 0 -26 -10 -40 -23 -26 -22 -26
-23 -8 -44 l18 -22 130 29 c71 16 141 34 156 41 73 30 156 -20 200 -119 23
-54 24 -101 2 -269 -9 -73 -14 -135 -11 -138 3 -3 44 -19 91 -35 l86 -30 128
15 c70 8 178 21 238 29 61 8 187 24 280 35 242 30 229 24 236 102 4 35 7 185
8 332 1 306 10 364 70 453 20 29 129 149 244 267 281 290 344 371 439 562 94
188 136 330 163 545 32 252 0 516 -101 835 -83 262 -201 466 -363 626 -112
109 -188 166 -319 237 -293 160 -647 231 -950 191z m-802 -463 c0 -2 -8 -10
-17 -17 -16 -13 -17 -12 -4 4 13 16 21 21 21 13z m-109 -139 c-13 -12 -20 -15
-16 -7 14 26 28 41 33 35 3 -3 -5 -16 -17 -28z m-39 -54 c-68 -96 -184 -322
-231 -451 -13 -34 -25 -61 -27 -59 -12 11 95 265 140 337 13 19 45 72 72 118
27 45 53 82 57 82 5 0 0 -12 -11 -27z m-267 -553 c-4 -12 -9 -19 -12 -17 -3 3
-2 15 2 27 4 12 9 19 12 17 3 -3 2 -15 -2 -27z m-18 -52 c-3 -8 -6 -5 -6 6 -1
11 2 17 5 13 3 -3 4 -12 1 -19z"/>
<path d="M842 4793 c-17 -30 -15 -37 4 -19 8 9 14 22 11 29 -2 7 -8 4 -15 -10z"/>
<path d="M761 4714 c0 -11 3 -14 6 -6 3 7 2 16 -1 19 -3 4 -6 -2 -5 -13z"/>
<path d="M741 4644 c0 -11 3 -14 6 -6 3 7 2 16 -1 19 -3 4 -6 -2 -5 -13z"/>
<path d="M1072 4615 c0 -16 2 -22 5 -12 2 9 2 23 0 30 -3 6 -5 -1 -5 -18z"/>
<path d="M734 4595 c-3 -8 -4 -20 -2 -27 3 -7 7 -1 10 15 6 29 1 36 -8 12z"/>
<path d="M1052 4535 c0 -16 2 -22 5 -12 2 9 2 23 0 30 -3 6 -5 -1 -5 -18z"/>
<path d="M702 4365 c0 -16 2 -22 5 -12 2 9 2 23 0 30 -3 6 -5 -1 -5 -18z"/>
<path d="M1610 3904 c-56 -11 -151 -49 -177 -71 -15 -14 -23 -22 -17 -19 13 6
91 14 252 25 113 7 258 0 295 -14 32 -13 18 14 -15 29 -93 42 -117 48 -213 51
-55 2 -111 1 -125 -1z"/>
<path d="M1430 2711 c32 -26 104 -55 122 -48 13 5 -72 47 -122 61 l-25 7 25
-20z"/>
<path d="M1435 2564 c-18 -18 -12 -28 22 -38 16 -5 23 -2 28 15 5 14 2 25 -6
30 -20 12 -25 11 -44 -7z"/>
<path d="M1627 2477 c-8 -13 -21 -49 -28 -80 -8 -31 -17 -57 -21 -57 -5 0 -8
-8 -8 -19 0 -30 -26 -46 -47 -30 -15 13 -16 11 -8 -16 10 -38 7 -143 -6 -167
-6 -10 -24 -21 -40 -25 -38 -7 -28 -17 35 -32 40 -10 52 -10 61 1 15 16 40
112 55 204 6 38 18 88 26 112 26 78 13 157 -19 109z"/>
<path d="M2251 1934 c-29 -8 -57 -16 -62 -19 -4 -3 -7 -85 -7 -183 1 -170 0
-180 -25 -241 -45 -109 -163 -242 -325 -368 -34 -27 -70 -65 -80 -85 -11 -21
-21 -35 -24 -32 -7 7 18 -86 31 -116 10 -21 11 -16 8 33 -2 32 0 60 4 62 3 3
20 -21 35 -52 34 -68 123 -160 217 -226 57 -40 67 -50 57 -62 -7 -8 -19 -15
-26 -15 -10 0 -14 -15 -16 -47 -3 -104 1 -108 107 -128 96 -17 117 -23 220
-66 74 -31 88 -33 190 -33 61 0 135 6 165 13 30 7 91 21 135 32 119 28 244 73
310 112 24 14 23 70 -1 60 -23 -9 -16 11 20 58 46 61 98 160 131 249 77 216
72 427 -15 605 -66 135 -156 213 -310 269 -41 15 -97 36 -125 47 -174 65 -358
128 -403 138 -70 15 -145 13 -211 -5z"/>
<path d="M1900 1880 c-8 -5 -38 -12 -67 -16 -69 -8 -58 -24 16 -24 47 0 63 5
87 25 l29 25 -25 0 c-14 0 -32 -5 -40 -10z"/>
<path d="M1565 1430 c-3 -5 -1 -10 4 -10 6 0 11 5 11 10 0 6 -2 10 -4 10 -3 0
-8 -4 -11 -10z"/>
<path d="M1581 848 c-50 -65 -103 -136 -116 -156 -5 -8 -31 -37 -57 -63 -27
-26 -48 -50 -48 -55 0 -4 -14 -20 -32 -36 -17 -15 -29 -28 -25 -28 10 0 -22
-30 -66 -64 -46 -36 -42 -44 10 -18 21 11 57 25 81 32 38 12 49 23 109 113 37
56 77 121 90 146 14 25 31 51 39 57 8 6 14 16 14 23 0 6 5 11 11 11 5 0 7 4 4
10 -3 5 4 23 16 40 40 53 12 43 -30 -12z"/>
<path d="M3190 551 c0 -5 5 -13 10 -16 6 -3 10 -2 10 4 0 5 -4 13 -10 16 -5 3
-10 2 -10 -4z"/>
<path d="M1790 432 c0 -5 6 -16 13 -27 16 -20 33 -5 23 20 -6 16 -36 21 -36 7z"/>
<path d="M1149 375 c-13 -13 -33 -25 -45 -25 -28 0 -36 -10 -23 -27 23 -27 53
-14 75 32 12 25 20 45 19 45 -2 0 -13 -11 -26 -25z"/>
<path d="M1790 330 c0 -15 -90 -51 -170 -66 -41 -8 -123 -26 -182 -39 -58 -14
-132 -25 -163 -25 -35 0 -54 -4 -50 -10 8 -13 109 -13 149 0 17 5 91 21 165
35 138 26 243 56 267 76 19 15 18 39 -1 39 -8 0 -15 -4 -15 -10z"/>
</g>
</svg>
